<svg width="47" height="47" viewBox="0 0 47 47" fill="none" xmlns="http://www.w3.org/2000/svg">
<path d="M34.9747 10.5525C34.0387 10.9228 27.7952 13.3297 21.0888 15.9114C14.3824 18.4829 8.74573 20.7046 8.57087 20.8486C8.15944 21.1469 8.03601 21.3629 7.964 21.939C7.90229 22.3401 7.93315 22.4327 8.22115 22.7515C8.60173 23.1938 8.7663 23.2555 12.3561 24.5824C13.9092 25.1584 15.2258 25.6727 15.2876 25.7447C15.3493 25.8167 15.9458 27.627 16.6144 29.7768C17.2727 31.9265 17.9105 33.8603 18.0133 34.066C18.2807 34.5803 18.6613 34.8169 19.2065 34.8066C19.7516 34.7963 19.9471 34.6626 22.1997 32.8214C23.3517 31.8854 24.0717 31.3711 24.2157 31.3711C24.37 31.3711 25.7072 32.2763 27.7335 33.7574C29.5438 35.0637 31.1998 36.2466 31.4261 36.3803C32.1873 36.8123 33.0204 36.5963 33.3701 35.866C33.5244 35.5266 34.9439 28.8408 37.5462 16.1069L38.6056 10.9742L38.4205 10.6245C38.1634 10.1513 37.6799 9.87361 37.1245 9.8839C36.8262 9.8839 36.0959 10.1102 34.9747 10.5525ZM37.2068 11.5502C37.1451 11.9719 32.7838 33.1711 32.4444 34.6832C32.3518 35.074 32.2387 35.3826 32.177 35.3826C32.1153 35.3826 30.5621 34.282 28.7209 32.9448C26.8797 31.6077 25.2134 30.4248 25.0077 30.3219C24.5654 30.0957 23.8557 30.0854 23.4545 30.2911C23.29 30.3734 22.5185 30.97 21.7368 31.6077C20.9551 32.2454 20.0705 32.9654 19.7619 33.2123L19.1962 33.6443L19.0728 33.4077C18.9699 33.202 18.3527 31.2477 16.8304 26.3207C16.5219 25.3333 16.3984 25.0659 16.1207 24.8293C15.8944 24.6133 14.8453 24.1813 12.6029 23.3584C10.8441 22.7207 9.3526 22.1344 9.27031 22.0624C9.15717 21.9492 9.15717 21.9081 9.32174 21.8052C9.63032 21.6201 36.857 11.1285 37.0731 11.1182C37.2376 11.1079 37.2582 11.1593 37.2068 11.5502Z" fill="var(--current-color)"/>
<path d="M24.3257 19.2968C20.592 21.5906 17.4445 23.5449 17.3416 23.6375C17.0742 23.8843 16.7656 24.5735 16.7656 24.9746C16.7656 25.3346 18.2365 30.5393 18.4319 30.8581C18.7097 31.2901 19.3577 31.393 19.7794 31.0536C20.1085 30.8067 20.2011 30.4673 20.4068 28.8112C20.4994 28.1221 20.6434 27.3918 20.736 27.2067C20.8285 27.0009 22.9989 24.9026 26.2801 21.8683C29.2321 19.1219 31.783 16.7356 31.927 16.5505C32.431 15.9539 32.143 15.1207 31.4127 15.1207C31.1864 15.1207 29.263 16.2522 24.3257 19.2968ZM27.9772 18.5562C27.9772 18.5871 26.1669 20.2843 23.9657 22.3311C20.3451 25.6843 19.9234 26.1163 19.6457 26.6821C19.4297 27.1141 19.3165 27.5358 19.2754 28.0604C19.2342 28.4718 19.1725 28.8215 19.1417 28.8421C19.1108 28.873 18.8228 27.9987 18.5245 26.9289C18.0102 25.1392 17.9794 24.9438 18.1131 24.7175C18.1954 24.5735 20.2011 23.2672 23.0914 21.498C25.7555 19.8625 27.9361 18.5151 27.9567 18.5151C27.967 18.5151 27.9772 18.5357 27.9772 18.5562Z" fill="var(--current-color)"/>
</svg>
