<svg width="340" height="596" viewBox="0 0 340 596" fill="none" xmlns="http://www.w3.org/2000/svg">
<path d="M100.159 3.19067C100.585 4.89227 101.543 7.76385 102.394 9.57184L103.885 12.7625L101.543 10.1036C100.266 8.61462 98.1368 6.06219 96.7531 4.25421C95.4758 2.55255 93.9857 1.48901 93.4535 1.91443C93.0277 2.44617 93.1342 3.08429 93.7728 3.5097C95.4758 4.78595 98.5626 10.1036 97.4982 10.1036C96.966 10.1036 95.3694 8.72101 93.9857 7.01935C91.4312 4.04144 87.8122 1.59534 86.0028 1.59534C84.9384 1.70172 95.263 11.1671 96.4338 11.1671C96.966 11.1671 97.0724 11.8052 96.7531 12.5497C96.4338 13.4006 98.9883 15.634 103.246 18.3992C110.484 22.9724 112.4 25.6312 107.078 23.6105C105.268 22.9724 104.204 22.0152 104.523 21.3771C104.842 20.8453 104.63 20.739 103.885 21.1644C103.246 21.5897 101.756 21.3771 100.798 20.6326C99.8398 19.8881 100.159 20.4199 101.649 21.9088C103.139 23.2914 106.439 25.8439 109.1 27.6519C111.761 29.3536 114.103 31.1616 114.422 31.4807C114.741 31.7997 116.444 32.8632 118.254 33.8204C120.063 34.7776 122.086 36.2665 122.831 37.1174C124.002 38.4999 124.002 38.819 122.511 38.819C121.553 38.819 120.808 38.2872 120.808 37.6491C120.808 37.1173 120.383 36.7983 119.85 37.1174C119.318 37.4364 117.083 37.011 114.954 36.0538C110.59 34.2458 109.206 34.5649 111.761 36.692C112.613 37.4364 113.358 38.819 113.358 39.6698C113.358 40.7333 112.506 40.2016 111.016 38.0745C109.632 36.3729 107.503 33.7141 106.12 32.3314C104.842 30.9489 103.033 28.8218 102.075 27.6519C100.691 25.9503 100.478 25.8439 101.011 27.3328C101.969 30.6298 100.691 29.3536 98.4561 24.9931C95.7952 19.7817 94.6243 19.3564 96.7531 24.4613C99.5205 31.0552 96.7531 28.3964 93.6664 21.5898C91.2183 16.0594 90.5797 15.3149 89.8346 17.0166C89.4088 18.1865 88.9831 18.6119 88.9831 18.0801C88.8766 17.442 88.3444 17.761 87.8122 18.6119C86.9607 19.9944 86.6414 19.8881 85.2577 18.0801C84.5126 16.9102 82.8096 14.7831 81.5323 13.2942C79.2971 10.7418 79.1907 10.7418 79.8293 12.9752C80.2551 14.4641 80.0422 15.4213 79.4035 15.4213C78.7649 15.4213 78.2327 14.9958 78.2327 14.5704C78.2327 13.5069 72.9108 10.8481 72.2721 11.4862C72.0592 11.6989 74.5073 13.7196 77.7005 15.9531C80.8937 18.0801 83.5547 20.1008 83.5547 20.3135C83.5547 20.6326 81.1066 19.5691 78.1263 18.0801C75.146 16.4848 72.2721 15.4213 71.6335 15.634C71.1013 15.8467 74.8267 18.1865 80.0422 20.739C85.1513 23.3978 89.6217 25.6312 89.8346 25.7375C90.0475 25.9503 90.0475 26.3757 89.7281 26.6947C89.3024 27.0138 87.5993 26.482 85.7899 25.6312C84.0869 24.674 82.3838 24.3549 82.0645 24.8867C81.7452 25.3121 83.3418 26.2693 85.6834 27.0138C89.6217 28.1837 92.3891 30.3107 90.0474 30.3107C89.4088 30.3107 88.8766 30.7361 88.8766 31.1616C88.8766 31.6934 91.5376 32.6505 94.7308 33.395C100.053 34.5649 103.672 36.692 100.372 36.692C98.8819 36.692 100.904 37.9682 110.164 42.7541C113.996 44.6685 115.38 45.8383 114.103 46.051C111.655 46.5828 113.145 47.9654 121.128 53.0704C124.534 55.1974 127.195 57.2181 127.195 57.6436C127.195 57.9626 126.45 57.6436 125.598 56.899C124.747 56.1546 123.256 55.8356 122.405 56.2609C120.489 56.899 110.803 47.7527 111.761 46.1574C112.4 45.3066 111.655 45.0939 106.865 44.6685C105.907 44.6685 103.139 42.9668 100.691 41.0524C97.2853 38.2872 96.5402 37.2237 97.6046 36.4792C98.5626 35.7347 98.4561 35.6284 96.8596 35.8411C95.6887 36.0538 94.7308 36.9047 94.6243 37.7555C94.6243 39.7762 97.3917 43.1795 98.5626 42.5414C98.9883 42.2224 99.627 42.3287 99.9463 42.8604C101.117 44.7748 97.1789 43.6049 94.6243 41.2651C93.1342 39.8826 91.5376 38.819 91.1118 38.819C90.2603 38.819 81.3195 32.3315 77.807 29.0345C76.6361 27.9709 75.2524 27.1202 74.7202 27.1202C73.6558 27.1202 76.4232 30.8425 79.2971 33.1823C80.1486 33.9268 80.3615 34.5649 79.8293 34.5649C78.552 34.5649 71.3142 29.8853 67.6952 26.6947L65.1407 24.4613L66.5244 26.9074C67.6952 29.2472 67.5888 29.3536 65.2471 28.7155C63.9699 28.29 62.6926 27.4392 62.4797 27.0138C62.2669 26.482 61.3089 26.0566 60.351 26.0566C59.393 26.0566 57.3707 25.0994 55.8805 23.9295C53.0067 21.6961 50.5586 21.1644 50.5586 22.866C50.5586 23.3978 49.707 23.6105 48.7491 23.2914C47.6847 23.0787 49.2813 24.0359 52.1551 25.5248C57.2642 28.0773 57.3707 28.1837 54.2839 28.29C52.0487 28.3964 53.0067 28.8218 57.4771 29.779L63.8634 31.1616L56.4127 30.7361C51.1972 30.4171 49.8135 30.6298 51.6229 31.2679C53.1131 31.7997 56.8385 32.2251 59.9252 32.3314C63.2248 32.4378 65.3536 32.8632 64.9278 33.5013C64.6085 34.0331 65.8858 34.9903 67.8017 35.5221L71.3142 36.4792L67.3759 36.5856C62.1604 36.692 62.2669 37.9682 67.5888 40.4143C69.9305 41.4778 71.6335 42.5414 71.4206 42.7541C70.5691 43.6049 59.0737 39.8826 52.2616 36.5856C40.234 30.6298 36.9344 29.9916 46.0881 35.3093L51.0908 38.2873L46.9396 38.6063C43.1078 38.9254 27.887 33.8204 24.2681 31.0552C23.3102 30.4171 22.8844 30.4171 22.8844 31.2679C22.8844 31.906 25.1196 33.6077 27.9935 34.9903L32.9961 37.6491L28.7385 37.2237L24.481 36.692L28.7385 38.1809C31.0802 39.0317 32.1446 39.7762 31.1866 39.7762C28.7385 39.8826 20.5427 37.1174 13.5178 33.8204C6.06703 30.3107 5.32195 31.2679 12.5598 34.9903C16.6045 37.2237 17.2431 37.7554 14.9015 37.3301C13.1984 36.9047 9.04732 36.3729 5.85415 36.1602L0 35.6284L6.8121 37.2237C15.4337 39.1381 17.2431 39.9889 11.7083 39.4572C9.36664 39.2444 6.49278 39.4571 5.32195 39.9889C3.93825 40.5206 5.96059 40.8397 11.1761 40.9461C16.9238 41.1588 18.414 41.3715 16.4981 42.0096C14.5822 42.6477 16.2852 42.9668 22.3522 43.0731C30.3351 43.2858 30.548 43.3922 26.184 44.243C17.6689 45.8383 18.9462 46.051 34.5927 45.7319C48.3233 45.4129 49.2813 45.4129 43.4271 46.4764C39.7018 47.1146 36.7215 48.0718 36.7215 48.7099C36.7215 49.2416 37.9987 49.4543 39.7018 49.0289C43.5336 48.1781 61.2025 47.2209 58.5415 48.0717C53.9646 49.348 51.3036 50.6242 51.9423 51.156C52.2616 51.475 55.6676 50.7306 59.6059 49.5607C63.5441 48.2845 67.8017 47.3273 69.0789 47.4336C71.8464 47.54 71.3142 47.6464 60.351 50.6243C55.4548 51.9005 51.7294 53.0704 51.9423 53.3894C52.2616 53.6021 56.8385 52.7513 62.1604 51.5814C67.4824 50.3052 72.485 49.5607 73.2301 49.7734C73.8687 50.0925 73.3365 50.4115 71.8464 50.5179C68.8661 50.6242 62.9055 53.6021 65.46 53.6021C66.3115 53.7085 68.9725 52.964 71.3142 52.1132C73.6558 51.2623 77.4876 50.6243 79.8293 50.7306C83.7675 50.837 83.6611 50.8369 77.7005 52.1132C69.6112 53.8148 69.9305 53.7085 72.3786 54.8784C73.8687 55.5165 72.3786 55.7292 67.5888 55.4102C61.096 54.9847 60.8831 54.9847 63.8634 56.3673L67.0566 57.8563L63.8634 57.3245C62.1604 57.0054 60.0316 56.58 59.393 56.2609C58.6479 56.0483 58.0093 56.3673 58.0093 56.899C58.0093 57.4308 59.8188 58.1753 62.054 58.4944C64.1828 58.9198 66.5244 59.4515 67.0566 59.6642C68.4403 60.196 59.7123 59.3452 54.8161 58.3881C52.7938 57.9626 51.4101 58.069 51.8358 58.4944C52.368 59.0261 55.8805 59.9833 59.8188 60.7278L67.0566 62.1104L61.2025 61.7913C58.0093 61.5786 53.0067 61.685 50.0264 62.1104L44.7044 62.8549L49.2813 63.7057C54.8161 64.7692 54.7097 64.9819 48.5362 65.9391C45.8752 66.3645 42.2563 67.3217 40.5533 68.1725L37.2537 69.6615L41.7241 69.3424C44.1722 69.2361 45.8752 69.4488 45.6624 69.8742C45.343 70.4059 44.3851 70.725 43.5336 70.725C42.6821 70.725 42.0434 71.1505 42.0434 71.7886C42.0434 73.1711 43.7465 73.1711 46.4074 71.7886C48.8555 70.4059 49.0684 71.0441 46.7268 73.3839C43.5336 76.5745 45.9817 76.149 49.6006 72.9584C51.5165 71.1504 53.5388 69.6615 54.071 69.6615C54.4968 69.6615 53.5389 70.8314 51.9423 72.214C50.3457 73.5966 49.2813 75.1919 49.8135 75.6173C50.2392 76.0427 51.9423 75.1918 53.5389 73.7029C55.1354 72.2139 57.5835 70.4059 58.9672 69.6615C61.096 68.598 61.6282 68.598 62.4797 69.9805C62.9055 70.9377 65.5665 72.0013 68.121 72.4266C72.9108 73.0648 74.8267 74.9791 70.782 74.9791C69.6112 74.9791 68.6532 75.5109 68.6532 76.149C68.6532 76.7872 68.0146 77.1062 67.2695 76.7872C66.5244 76.5745 64.0763 76.6808 61.7347 77.1062L57.4771 77.957L62.2669 78.1697C66.9502 78.3824 66.9502 78.3824 63.9699 79.446C61.9475 80.1904 61.4153 80.8286 62.2669 81.3604C63.2248 81.9985 62.9055 82.5302 61.096 83.4874C58.435 84.9764 56.9449 86.5717 56.9449 88.2733C56.9449 88.8051 57.4771 88.6987 58.1157 88.0606C58.7544 87.4225 60.0316 87.1034 60.7767 87.4225C61.6282 87.7415 63.2248 86.8907 64.5021 85.5081L66.6309 82.9557L65.8858 85.6145C65.2471 87.9543 65.46 87.8479 68.2274 84.551C72.2721 79.7651 75.2524 77.2126 76.9554 77.1062C78.0198 77.1062 77.9134 77.5316 76.7426 78.8079C73.8687 81.5731 74.8267 81.5731 79.8293 78.5952C82.4903 77.1062 84.6191 76.3617 84.6191 76.9998C84.6191 77.5316 83.7675 78.5952 82.8096 79.127C81.7452 79.765 81.4259 80.2968 82.0645 80.2968C82.5967 80.2968 85.4706 78.8079 88.238 76.9998C91.1118 75.2982 94.1986 74.022 95.1565 74.2347C96.4338 74.5538 96.2209 74.8728 94.1986 75.83C90.6861 77.3189 93.1342 77.4253 99.0948 75.9363C103.991 74.6601 106.546 75.4045 103.778 77.1062C102.927 77.7443 100.904 78.1697 99.3076 78.1697C97.7111 78.1697 96.1145 78.5952 95.7952 79.2333C95.4758 79.7651 93.1342 81.1476 90.5797 82.3176C86.1092 84.2319 74.8267 94.1227 77.0619 94.1227C77.5941 94.1227 78.8713 93.2719 79.9357 92.3148C81.3194 90.9321 81.8516 90.7195 82.2774 91.783C82.5967 92.7402 83.5547 92.3148 85.3641 90.5067C86.7478 89.0178 88.6637 88.1669 89.4088 88.486C90.2603 88.8051 92.1762 88.0606 93.6664 86.8907C95.1565 85.7208 97.1789 84.9764 98.2433 85.2954C99.3077 85.5081 102.394 84.7637 105.268 83.5938C111.867 80.7222 113.89 80.8286 108.887 83.7001C106.652 84.9764 104.842 86.4653 104.842 86.8907C104.842 88.0606 106.758 87.9543 107.503 86.678C108.249 85.4018 115.061 82.4239 116.977 82.4239C117.615 82.5302 116.444 83.381 114.422 84.551C109.952 86.9971 111.548 87.3162 117.083 84.9764C119.212 84.1255 121.553 83.5938 122.192 83.9128C123.044 84.2319 123.044 84.4446 122.086 84.4446C121.341 84.551 119.957 85.1891 119.105 86.0399C118.36 86.8907 117.083 87.7416 116.338 88.0606C115.593 88.2733 115.274 88.8051 115.593 89.2305C116.019 89.6559 118.147 89.0178 120.383 87.8479C122.618 86.5717 125.705 85.6145 127.088 85.6145C129.643 85.6145 129.643 85.7208 127.727 87.1034C125.811 88.486 125.811 88.5923 128.791 88.1669C131.346 87.7415 131.133 88.0606 127.195 89.7623C124.534 90.9322 121.234 91.8893 119.744 91.9957C117.296 92.1021 117.296 92.2084 119.212 93.0592C120.383 93.4846 123.044 94.4418 125.066 95.08C127.088 95.7181 127.727 96.0371 126.45 95.8244C123.895 95.399 123.15 96.6752 125.385 97.7388C126.024 98.0579 124.747 98.0578 122.405 97.6324C116.444 96.5688 108.568 96.8879 106.333 98.2705C104.736 99.334 105.162 99.4404 108.994 98.8023C112.293 98.3769 113.464 98.4832 112.932 99.3341C112.506 99.9722 110.803 100.504 109.206 100.504C105.055 100.504 95.263 103.588 95.263 104.864C95.263 105.503 96.3274 105.715 97.7111 105.396C99.7334 104.864 99.7334 104.864 97.3917 106.034C95.9016 106.779 94.5179 107.63 94.1986 107.949C93.8793 108.268 92.2827 109.331 90.6861 110.395C88.9831 111.458 88.0251 112.841 88.4509 113.479C88.9831 114.224 88.6637 114.436 87.5993 114.011C86.3221 113.585 86.1092 113.904 86.4285 115.5C86.7478 116.563 86.535 117.52 86.0028 117.52C85.4706 117.52 84.4062 118.797 83.6611 120.392C82.4903 122.838 82.5967 123.051 83.9804 121.881C84.8319 121.137 86.1092 120.817 86.7478 121.243C87.28 121.562 87.8122 121.349 87.8122 120.711C87.8122 119.435 94.1986 112.203 95.3694 112.203C95.7952 112.203 95.9016 113.266 95.5823 114.543C95.1565 116.67 95.3694 116.563 96.8596 114.011C97.7111 112.415 98.9883 111.139 99.5205 111.139C100.159 111.139 100.585 110.608 100.585 109.863C100.585 108.906 100.266 108.906 99.3076 109.863C97.4982 111.671 95.7952 111.458 97.3917 109.544C98.1368 108.587 99.627 108.161 100.691 108.48C101.969 108.906 102.714 108.587 102.714 107.736C102.714 106.566 102.927 106.566 103.672 107.736C104.31 108.799 104.736 108.799 105.907 107.417C106.652 106.566 107.823 105.822 108.568 105.822C109.419 105.822 110.164 105.184 110.484 104.439C110.697 103.801 111.229 103.482 111.655 103.907C112.4 104.439 109.739 108.055 105.055 112.841C104.204 113.798 104.097 114.33 104.736 114.33C105.375 114.33 106.758 113.479 107.823 112.416C111.548 108.693 117.083 104.971 119.212 104.758C123.682 104.226 124.214 104.758 121.766 106.885C118.467 109.544 119.744 109.544 124.747 106.885C129.856 104.12 132.304 104.014 130.281 106.566C128.898 108.161 129.004 108.268 131.452 107.417C135.71 106.141 146.247 105.928 147.099 107.204C147.525 107.842 147.099 108.055 146.034 107.63C144.225 106.991 138.051 108.799 136.029 110.714C135.071 111.671 135.497 112.416 138.158 113.798L141.564 115.5L136.242 114.649C129.43 113.692 117.402 114.117 116.019 115.5C115.274 116.244 116.125 116.563 118.68 116.457C125.917 116.032 126.982 116.457 123.044 118.052C121.128 118.903 118.68 119.648 117.722 119.648C114.635 119.754 106.758 123.795 107.503 124.965C107.929 125.71 108.674 125.71 109.419 125.178C111.761 123.37 117.509 121.881 118.147 122.945C118.573 123.476 118.041 123.902 117.189 123.902C116.338 123.902 115.274 124.433 114.954 124.965C114.528 125.71 116.019 125.922 119.212 125.603C124.321 125.178 126.024 124.433 124.534 123.051C124.108 122.625 123.469 122.945 123.256 123.583C122.724 125.072 120.808 125.497 120.808 124.114C120.808 123.583 122.086 122.625 123.576 121.987C125.598 121.03 126.13 121.03 125.492 121.881C124.747 123.157 125.917 123.051 130.92 121.243C132.73 120.605 132.836 120.711 131.452 121.775C130.175 122.838 130.388 122.944 132.517 122.413C134.007 121.987 137.306 121.456 139.967 121.243L144.757 120.711L139.329 122.2C133.049 124.008 126.556 127.624 125.811 129.751C125.492 130.496 127.514 129.751 130.281 128.049C134.113 125.603 136.136 125.072 138.158 125.603C139.754 125.922 140.819 126.667 140.5 127.092C140.287 127.518 142.309 127.411 145.076 126.986C147.95 126.454 151.463 126.454 153.272 126.986C155.082 127.518 155.72 128.049 154.762 128.049C151.569 128.262 142.096 131.453 142.096 132.304C142.096 132.835 143.906 132.623 146.141 131.772C150.931 130.07 153.804 129.857 153.804 131.346C153.804 131.878 155.401 132.516 157.317 132.623C160.191 132.729 160.084 132.835 155.933 133.474L151.143 134.218L155.933 134.431C158.594 134.431 162.639 134.856 164.981 135.281C168.812 135.92 169.025 136.026 166.577 136.77C164.129 137.409 164.129 137.515 166.258 137.621C167.535 137.728 168.812 138.047 169.025 138.472C169.345 139.004 166.896 139.217 163.597 139.217C160.191 139.11 159.233 139.217 161.255 139.429C163.278 139.748 165.726 140.28 166.577 140.599C167.429 140.918 168.706 141.344 169.238 141.344C169.877 141.45 171.473 141.875 172.963 142.407L175.624 143.364L173.07 144.322C171.686 144.747 169.557 144.96 168.28 144.641C167.003 144.322 167.961 145.066 170.303 146.236C172.644 147.406 175.412 148.363 176.476 148.363C177.54 148.363 178.179 148.788 177.86 149.32C177.54 149.852 178.818 151.234 180.734 152.511C184.565 154.957 183.501 155.489 179.35 153.149C177.86 152.298 175.624 151.66 174.347 151.554C173.07 151.554 169.77 149.639 167.109 147.299C164.448 144.96 161.681 143.045 161.042 143.045C160.404 143.045 158.914 142.301 157.849 141.237C156.785 140.28 155.72 139.748 155.401 140.067C155.082 140.386 157.743 142.62 161.255 145.066C164.661 147.512 167.854 149.958 168.174 150.49C169.664 152.83 164.555 150.703 160.084 147.087C154.337 142.407 150.292 140.386 145.076 139.429C139.861 138.472 139.861 139.429 145.076 140.812C147.312 141.45 149.973 142.726 151.143 143.577C153.272 145.279 153.272 145.279 151.037 144.215C149.76 143.577 146.673 142.939 144.118 142.62C141.564 142.407 136.561 141.663 133.155 140.918C129.643 140.28 124.853 139.961 122.511 140.28C114.316 141.556 115.699 142.514 125.385 142.301C134.858 142.088 134.965 142.194 128.898 143.045C125.492 143.683 122.298 144.428 121.979 144.747C121.66 145.172 123.256 145.066 125.598 144.641C132.942 143.364 128.898 145.172 120.702 146.874C116.444 147.725 110.91 149.427 108.568 150.596C103.672 152.936 106.013 152.723 115.806 149.958C123.576 147.831 126.237 148.469 119.744 150.809C115.274 152.511 115.167 152.617 118.68 152.085C121.873 151.66 122.086 151.766 120.276 152.83C117.934 154.212 115.061 156.871 115.912 156.871C116.231 156.871 118.147 155.914 120.17 154.638C122.192 153.468 125.705 152.298 127.94 151.979L131.984 151.554L126.662 154.106C123.789 155.489 122.192 156.765 123.15 156.765C124.108 156.871 125.172 156.446 125.492 155.914C125.917 155.382 128.472 154.425 131.239 153.787C134.007 153.255 137.2 152.404 138.371 152.085C140.5 151.341 140.5 151.341 138.371 153.149C136.242 154.957 136.242 154.957 138.903 154.212C140.393 153.893 144.225 153.255 147.418 153.042L153.272 152.617L148.482 154C137.945 157.19 131.133 161.125 133.049 163.04C133.368 163.359 134.007 163.146 134.539 162.402C135.923 160.168 148.589 155.701 150.505 156.871C151.995 157.722 151.889 157.828 149.973 157.935C148.802 157.935 146.886 158.998 145.715 160.275C143.693 162.508 143.693 162.508 146.354 161.763C147.844 161.338 153.379 160.806 158.594 160.594C165.406 160.275 167.216 160.487 164.981 161.125C161.787 162.083 161.787 162.083 165.726 161.87C167.961 161.657 169.345 161.976 169.025 162.614C168.599 163.146 169.77 163.359 172.006 162.933C174.56 162.402 175.199 162.508 174.028 163.252C173.176 163.784 168.706 164.316 164.129 164.316C158.062 164.316 154.55 164.954 151.037 166.443C148.482 167.613 146.354 168.783 146.354 168.996C146.354 169.208 149.76 168.464 154.017 167.4C162.426 165.167 168.28 164.848 169.238 166.443C169.557 166.975 169.238 167.507 168.493 167.613C167.748 167.719 169.238 168.145 171.793 168.676C178.605 169.953 179.137 171.335 172.644 170.91C169.557 170.697 165.939 171.016 164.448 171.654C162.32 172.505 163.49 172.718 170.303 172.824C179.243 172.931 186.588 174.739 185.736 176.547C185.417 177.185 182.011 177.504 177.647 177.185C172.857 176.972 169.77 177.291 169.345 178.036C168.812 178.78 170.728 179.205 175.305 179.099C181.798 178.993 193.4 182.29 194.783 184.629C195.635 185.799 195.529 185.799 191.271 184.523C188.397 183.779 187.865 183.779 188.823 184.949C189.462 185.693 191.91 186.863 194.145 187.607C196.487 188.245 198.615 189.203 198.935 189.628C199.573 190.798 195.316 190.373 191.803 188.884C190.1 188.245 188.078 187.714 187.226 187.714C186.375 187.714 185.736 187.288 185.736 186.65C185.736 186.118 184.991 185.906 184.14 186.331C183.075 186.65 181.372 185.693 179.456 183.566C175.518 179.099 174.134 179.312 177.647 183.885C181.053 188.352 181.266 189.841 178.179 187.076C175.837 185.055 175.837 185.055 177.115 187.395C177.753 188.671 179.243 190.053 180.521 190.372C181.691 190.798 182.437 191.33 182.224 191.649C181.691 192.181 177.115 190.053 176.157 188.777C175.305 187.714 164.235 183.247 163.703 183.885C163.171 184.417 167.216 186.757 174.454 190.053C179.35 192.393 179.137 193.457 173.921 191.968C165.406 189.522 167.642 191.968 176.37 194.627C179.776 195.69 183.395 197.179 184.352 197.924C185.843 198.987 185.204 198.987 181.159 197.817C173.815 195.584 175.944 197.711 184.14 200.582C187.971 201.859 192.123 204.198 193.4 205.581L195.848 208.134L191.377 205.9C186.375 203.348 176.476 201.54 177.54 203.348C177.966 203.986 179.988 204.73 182.117 205.049C186.375 205.794 199.999 212.069 199.147 213.026C198.828 213.345 197.87 213.026 197.019 212.281C195.529 211.005 194.677 210.792 187.865 209.516C185.098 208.984 184.565 209.091 185.736 209.942C186.588 210.58 187.971 211.111 188.823 211.111C189.568 211.111 193.08 212.388 196.593 213.983C201.063 215.897 202.66 217.174 202.234 218.343C201.915 219.407 202.234 219.62 203.299 219.194C204.15 218.875 204.789 219.194 204.576 219.939C204.469 220.683 204.895 221.109 205.534 221.002C206.066 220.896 206.598 222.279 206.598 224.087C206.492 226.107 207.13 227.596 208.088 227.915C209.472 228.447 209.472 228.234 208.195 226.745C207.45 225.682 207.13 224.937 207.663 224.937C208.833 225.044 214.475 229.936 214.475 230.893C214.475 231.319 213.517 230.787 212.346 229.723C211.175 228.66 209.898 228.128 209.472 228.553C209.046 228.872 209.791 229.936 211.175 230.893C213.41 232.488 218.732 240.04 218.732 241.635C218.732 242.698 211.282 234.296 211.282 233.127C211.282 232.701 210.749 232.382 210.004 232.382C209.259 232.382 207.343 231.106 205.64 229.404C203.405 227.49 202.66 227.171 203.086 228.341C203.405 229.404 201.063 227.703 197.87 224.618C188.504 215.685 185.63 215.047 193.506 223.555C197.977 228.341 197.977 228.447 194.571 226.639C192.655 225.682 190.313 224.937 189.249 224.937C187.971 225.044 188.716 225.788 191.165 227.064C193.187 228.128 195.529 229.83 196.274 230.68C197.551 232.169 197.232 232.276 194.145 231.744C184.885 230.255 185.098 230.255 187.333 231.212C188.504 231.638 192.335 233.02 195.741 234.084C202.873 236.317 205.321 239.082 199.36 238.125L195.848 237.593L198.828 239.295C202.021 241.103 205.96 244.719 205.96 245.783C205.96 246.208 205.321 245.995 204.682 245.357C202.873 243.975 196.38 242.592 196.38 243.762C196.38 244.187 199.68 246.102 203.618 248.016C210.004 250.994 210.749 251.738 210.749 254.504C210.856 256.737 210.43 257.481 209.366 257.056C208.301 256.737 208.195 256.312 209.153 255.78C210.111 255.142 210.111 254.823 209.046 254.397C207.769 253.865 207.769 253.653 208.94 252.802C210.004 252.057 209.472 251.845 207.237 251.951C205.215 252.057 204.257 252.483 204.576 253.334C204.895 254.078 205.64 254.716 206.385 254.716C207.024 254.716 206.811 255.248 205.96 255.78C205.108 256.312 204.895 256.843 205.427 256.843C207.237 256.95 213.623 263.118 212.985 264.182C212.559 264.714 213.197 265.883 214.262 266.628C215.433 267.372 217.029 269.499 217.987 271.414C219.477 274.179 219.477 274.711 218.2 274.498C217.349 274.392 215.646 273.328 214.368 272.158L212.027 270.138L213.41 272.69C214.155 274.179 215.646 276.306 216.816 277.476C220.967 281.836 224.161 290.557 225.225 300.129C225.757 305.234 226.822 314.7 227.46 321.187C229.27 337.353 229.27 424.137 227.46 442.43C226.715 449.981 225.757 458.596 225.331 461.574L224.586 466.891L220.435 459.978C213.73 448.492 205.853 438.92 190.952 423.712C170.835 403.398 164.768 395.315 155.401 376.491C141.032 347.456 137.839 333.524 137.626 297.47C137.519 286.197 137.2 276.731 136.774 276.519C136.455 276.306 135.603 278.858 134.858 282.155C130.601 302.894 130.069 326.718 133.475 341.075C135.71 350.434 143.48 369.365 147.418 374.789C148.589 376.491 149.547 378.193 149.547 378.512C149.547 378.831 150.292 380.001 151.143 380.958C152.634 382.659 160.191 392.55 168.812 404.143C170.515 406.483 172.751 409.354 173.815 410.524C174.773 411.694 178.392 416.48 181.904 421.159C188.823 430.412 198.828 442.536 201.808 445.089C202.766 445.94 206.705 450.513 210.536 455.192C214.262 459.978 218.945 465.402 220.755 467.423C224.48 471.464 224.48 471.252 221.925 486.567C214.688 529.746 212.985 556.228 215.539 588.347C217.242 609.405 217.455 611 219.69 611C221.606 611 221.606 609.086 221.287 571.33C221.074 540.488 221.287 529.427 222.564 521.131C223.416 515.282 224.267 509.007 224.586 507.305C225.012 503.902 227.567 486.886 229.376 474.336C231.611 460.085 233.634 441.366 233.634 435.517C233.634 424.456 237.891 412.545 248.216 394.571C253.006 386.275 258.966 377.873 260.563 377.235C260.989 377.023 261.308 376.385 261.308 375.746C261.308 374.577 269.61 362.984 272.91 359.474C274.506 357.879 288.024 333.95 294.198 321.932C297.071 316.295 303.884 301.299 303.884 300.448C303.884 299.916 304.841 297.364 305.906 294.918C307.077 292.365 309.206 285.771 310.802 280.241C312.399 274.711 314.421 268.223 315.273 265.883C316.23 263.544 317.295 259.928 317.827 257.907C319.104 252.483 321.659 242.592 324.107 233.977C325.278 229.83 327.407 221.959 329.003 216.429C330.493 210.899 333.686 200.582 335.922 193.563C341.989 174.845 341.35 173.888 333.58 189.841C327.3 202.71 323.043 212.281 323.043 213.238C323.043 213.77 322.404 215.791 321.552 217.705C318.572 224.406 309.631 255.142 306.97 267.479C306.438 270.138 305.267 274.604 304.416 277.582C303.564 280.454 302.393 285.027 301.755 287.686C299.839 295.45 296.326 307.148 294.836 310.552C294.091 312.253 293.133 314.912 292.707 316.401C289.834 326.292 276.422 348.52 267.907 357.241C260.882 364.579 250.345 377.767 247.471 382.872C242.681 391.274 236.827 403.505 236.827 405.1C236.827 405.951 236.508 406.908 235.975 407.227C235.55 407.44 235.124 393.72 235.017 376.704C234.805 348.733 234.166 327.887 232.995 319.06C232.782 317.252 232.356 310.977 231.931 305.128C231.292 296.088 231.505 293.961 232.995 291.834C233.953 290.451 234.698 288.111 234.698 286.516C234.698 285.027 236.614 280.773 238.956 277.157C241.297 273.541 243.213 270.244 243.213 269.925C243.213 269.499 241.404 270.882 239.275 272.903C237.146 274.817 235.975 275.668 236.72 274.711C237.466 273.647 237.785 271.946 237.359 270.563C236.827 268.968 236.933 268.542 237.891 269.074C238.636 269.499 238.956 269.287 238.849 268.436C238.53 266.628 240.765 261.523 243.426 258.013C245.981 254.61 245.874 252.483 243.213 255.78C240.765 258.97 240.446 258.226 242.681 254.078C243.745 252.057 243.852 250.675 243.107 249.824C242.362 248.973 242.894 246.846 244.703 242.911C246.194 239.827 247.258 237.168 247.045 236.955C246.939 236.743 245.342 238.551 243.745 240.89C239.701 246.74 239.062 245.464 242.788 239.082C247.684 230.787 249.6 226.745 248.961 226.107C248.642 225.788 247.152 226.852 245.768 228.66C244.384 230.361 243.213 231.531 243.213 231.106C243.213 229.723 248.748 220.258 250.983 217.812C253.325 215.259 252.793 213.132 250.345 215.153C248.642 216.642 247.471 215.791 247.577 213.345C247.577 212.069 247.897 212.175 248.535 213.77C249.174 215.366 249.387 214.834 249.28 211.643C249.28 209.303 249.493 205.262 249.919 202.603C250.451 199.306 250.345 198.774 249.706 201.008C248.642 204.943 245.129 212.6 245.981 209.197C246.3 207.814 246.3 204.411 245.874 201.752C244.916 195.265 243.533 197.711 242.575 207.708C242.149 212.707 241.51 215.047 240.978 214.196C240.339 213.239 240.02 214.408 239.914 217.493C239.914 221.109 239.701 221.747 238.956 220.151C238.317 218.556 237.998 219.513 237.998 223.555C237.891 226.533 237.466 229.298 236.827 229.723C236.295 230.042 235.55 233.339 235.017 236.955C234.379 242.379 234.166 243.017 233.634 240.359C233.314 238.551 233.314 235.998 233.74 234.509C234.059 233.02 234.698 228.022 235.017 223.342L235.656 214.834L233.953 221.64C232.995 225.363 231.931 227.915 231.718 227.171C231.079 225.256 234.592 211.005 236.401 208.24C237.253 206.964 237.891 205.049 237.891 203.986C237.891 202.71 237.359 203.135 236.188 205.262C234.272 209.091 232.995 210.261 234.06 207.389C234.485 206.219 235.017 202.922 235.337 200.157C235.55 197.392 236.295 194.095 236.933 192.925C237.572 191.649 237.785 190.479 237.572 190.16C237.253 189.841 236.295 191.011 235.337 192.712C233.208 196.647 233.208 194.414 235.23 189.309C236.188 187.182 236.614 184.629 236.401 183.672C236.082 182.609 236.933 179.524 238.424 176.653C241.51 170.484 241.617 169.953 239.381 172.186C235.869 175.802 235.017 170.272 238.317 164.848C240.446 161.444 241.084 158.998 240.02 158.998C239.488 158.998 237.998 160.806 236.827 162.933L234.592 166.975L235.23 162.827C235.656 160.594 237.253 155.914 238.956 152.511C242.468 145.279 241.51 143.896 237.891 150.915C236.082 154.319 235.017 155.276 234.166 154.425C233.527 153.787 233.102 152.085 233.314 150.596L233.634 147.831L232.463 150.49C229.589 156.871 226.822 161.763 225.438 163.252C224.586 164.103 225.012 162.402 226.396 159.53C231.611 148.788 232.356 146.874 231.824 145.917C231.611 145.491 231.931 144.428 232.569 143.577C234.379 141.45 232.889 141.556 230.76 143.683C229.589 144.747 229.376 145.598 230.121 146.023C230.866 146.555 229.483 150.171 226.502 155.808C223.948 160.806 222.138 163.359 222.564 161.657C222.99 159.849 224.693 155.914 226.289 152.723C229.908 146.023 230.015 145.491 227.567 147.406C226.077 148.682 226.077 148.363 227.886 145.385C228.95 143.471 230.76 140.918 231.931 139.748C232.995 138.578 233.527 137.302 233.208 136.983C232.889 136.664 231.079 137.94 229.27 139.961C227.035 142.407 226.183 142.833 226.715 141.45C227.141 140.28 227.673 137.94 227.992 136.132C228.312 134.431 229.376 131.772 230.334 130.283C231.399 128.794 232.782 125.922 233.421 123.902C234.592 120.179 234.592 120.179 232.782 122.732C231.824 124.114 229.696 127.73 228.099 130.708C224.161 137.94 224.267 135.388 228.205 127.518C231.824 120.073 234.698 113.266 234.166 113.266C233.953 113.266 232.569 115.393 231.079 118.052C229.483 120.711 227.992 122.838 227.78 122.838C227.567 122.838 227.886 120.817 228.631 118.265C230.121 113.16 229.695 103.163 228.205 107.949C227.78 109.544 227.567 107.417 227.886 102.631C228.099 97.1006 227.992 95.6117 227.354 97.8451C226.822 99.5468 226.396 103.695 226.289 106.885C226.183 112.947 224.161 118.478 224.054 113.266C223.841 107.63 222.777 96.7816 222.351 96.3562C222.138 96.1435 222.032 103.907 222.032 113.585C222.138 123.37 222.458 131.134 222.883 130.815C223.309 130.602 223.416 131.878 223.203 133.793C222.671 136.983 222.671 136.983 221.713 134.643C221.287 133.261 220.542 126.348 220.116 119.222C219.797 112.203 219.264 106.992 218.945 107.736C218.732 108.374 217.881 109.012 217.136 109.012C216.284 109.012 214.794 110.395 213.836 112.203C212.027 115.181 210.217 114.862 210.217 111.671C210.217 111.033 210.643 111.352 211.282 112.203C212.027 113.373 212.452 113.16 213.304 110.714C213.943 109.119 215.007 106.885 215.539 105.715C217.349 102.312 215.646 103.482 213.304 107.098L211.175 110.608L211.92 107.417C212.559 104.333 212.559 104.333 210.856 106.353C209.153 108.374 209.153 108.374 210.43 105.503C211.282 103.482 211.92 102.95 212.452 103.907C213.091 104.864 213.517 104.652 214.049 103.163C214.475 101.993 215.752 99.6531 216.923 98.0578C219.69 94.0164 218.519 93.2719 215.539 96.9943C214.155 98.5896 213.41 99.1214 213.73 98.0578C214.688 95.399 212.878 95.8244 211.494 98.5896C208.94 103.907 210.217 97.1006 212.878 91.3575C214.368 88.167 215.539 85.0827 215.539 84.551C215.539 83.9128 215.965 83.4874 216.497 83.4874C217.029 83.4874 217.668 82.5302 217.987 81.3604C218.945 77.8506 216.816 78.9142 214.9 82.9557C212.346 88.3797 211.814 86.7844 213.943 80.2968C216.178 73.3839 215.22 72.1076 212.452 78.2761L210.324 82.9557L210.111 72.3203L209.791 61.685L209.153 69.6615C208.514 77.7443 207.982 77.8507 206.172 70.1932C205.427 67.109 205.108 66.6836 205.002 68.5979C205.002 70.0869 205.427 73.1711 205.96 75.5109C206.705 78.3824 206.598 80.7222 205.853 82.7429C205.002 84.7636 205.002 86.0399 205.747 86.9971C206.385 87.7416 206.705 89.5496 206.385 91.0385C205.96 92.8465 206.066 93.1656 206.811 92.2084C207.45 91.1448 207.769 91.6766 207.663 94.0164C207.556 95.8244 207.343 97.3134 207.024 97.3134C206.279 97.3134 204.257 90.1877 202.554 81.5731C201.915 77.957 200.957 74.9791 200.531 74.9791C199.893 74.9791 200.638 80.5095 202.128 88.2733C202.766 91.2512 202.66 91.1449 201.276 87.7416C199.786 84.0192 199.786 84.1255 199.68 92.5275C199.68 97.207 199.148 102.737 198.509 104.758C197.764 107.63 197.551 106.141 197.977 97.9515C198.509 86.8907 198.083 85.5081 196.38 93.1655C195.635 96.6752 195.529 94.9736 195.954 86.1462C196.487 73.5966 195.848 72.0013 194.251 81.9985L193.293 88.2733L193.719 81.8921C194.038 78.3824 194.571 74.3411 194.89 72.8521C195.422 70.8314 195.316 70.5123 194.358 71.3631C193.719 72.0012 192.761 74.5538 192.229 77.2126C191.484 80.9349 191.271 81.254 191.165 78.7015C191.165 75.2982 193.506 64.3438 194.783 62.004C195.529 60.8342 195.316 60.8342 194.145 62.004C193.293 62.7485 192.123 65.1946 191.377 67.3217L190.1 71.2568L190.632 66.4709C191.165 61.7913 191.165 61.685 189.462 64.3438C188.504 65.8328 187.971 66.1519 188.291 65.0883C189.355 61.685 189.994 48.7099 189.036 51.5814L188.078 54.2402L187.865 51.5814L187.652 48.9226L186.801 51.5814C186.162 53.6021 185.843 52.5386 185.63 47.3273C185.523 43.3922 185.204 41.7969 184.885 43.6049C184.565 46.1574 183.927 44.7748 181.479 36.2665C179.776 30.5235 178.179 25.5248 177.86 25.2057C176.902 24.2486 177.115 28.3964 178.285 32.3314C179.669 37.2237 179.031 37.5427 176.263 33.2886C173.709 29.2472 173.389 30.098 175.518 34.884C177.86 40.308 178.285 43.0731 176.582 43.0731C175.731 43.0731 175.412 42.435 175.731 41.4778C176.157 40.627 175.837 39.8826 175.305 39.8826C174.667 39.8826 173.815 38.819 173.389 37.4364C172.963 36.1602 172.325 34.884 172.006 34.5649C171.58 34.2458 170.409 32.8632 169.451 31.3743C166.471 27.1201 167.429 30.9489 170.728 37.011C177.966 50.1988 180.414 55.1974 178.818 53.1767C177.86 52.0068 176.689 51.156 176.263 51.2623C175.837 51.3687 173.921 48.8162 172.006 45.6256C169.983 42.4351 168.28 39.8826 168.067 39.8826C167.322 39.8826 169.132 43.8176 175.412 55.6229C178.818 62.2167 181.479 67.9598 181.053 68.2789C180.734 68.598 179.669 67.3217 178.605 65.5137C174.347 57.7499 172.857 55.6228 172.218 56.1546C171.899 56.4736 172.644 58.1753 173.921 59.9833C175.731 62.5358 176.05 63.8121 175.305 67.2154L174.347 71.2568L173.176 67.0026C172.431 64.6628 171.899 62.0041 171.899 61.1533C171.899 60.3024 170.941 57.6436 169.77 55.3038L167.642 51.0497L168.174 54.772C168.599 57.8563 168.493 58.069 167.642 56.0483C166.151 52.645 165.193 53.1768 166.045 57.1118C166.577 59.9833 166.471 60.3024 165.513 58.7071C164.768 57.6436 164.555 55.7292 164.874 54.3466C165.513 51.5814 164.555 47.3273 163.278 47.3273C162.745 47.3273 162.639 48.6035 162.958 50.1988C163.171 51.9005 162.958 55.3038 162.426 57.9626C161.468 62.6422 161.468 62.7485 161.255 59.0261C161.149 56.0483 160.936 55.7292 160.297 57.4308C159.552 59.0262 159.233 58.069 158.594 53.4958C157.849 47.859 158.275 42.5414 159.871 37.9681C160.191 37.011 159.552 37.3301 158.488 38.7126C157.423 40.2016 156.465 43.2859 156.359 45.6256C156.146 48.0718 156.04 50.4116 155.933 51.0497C155.614 54.4529 152.634 45.2003 151.995 38.6063L151.143 30.8425L150.611 37.2237L150.079 43.6049L148.802 37.7555L147.631 31.9061L147.418 36.692C147.205 42.2223 146.779 41.5842 144.757 32.3314C143.48 26.3757 143.267 26.0566 143.267 29.6726L143.161 33.8204L141.351 31.2679C138.371 27.2265 137.094 24.674 136.348 20.9517C135.923 19.1436 135.071 17.2293 134.433 16.9102C133.794 16.4848 133.581 17.0165 133.9 18.1865C134.326 19.3563 134.858 21.5898 135.178 23.3978L135.816 26.5884L134.22 23.9295C132.41 20.9517 121.873 11.5925 121.873 13.0815C121.873 13.6132 123.789 15.8467 126.13 18.1865C130.175 22.2279 132.091 25.6312 128.685 22.7596C127.727 22.0152 126.237 21.2707 125.385 21.1644C124.534 20.9517 122.724 19.8881 121.447 18.7183C120.17 17.442 118.68 16.4848 118.254 16.4848C117.189 16.4848 118.573 22.9724 120.063 24.7804C120.595 25.5248 120.702 26.482 120.276 26.9074C119.85 27.3328 119.318 27.1201 119.105 26.5884C117.722 22.9724 114.103 18.3992 113.464 19.4627C112.932 20.3135 112.293 20.1008 111.229 18.8246C109.206 16.3784 103.778 8.18921 103.778 7.44476C103.778 7.23206 102.82 5.42407 101.649 3.5097L99.4141 0L100.159 3.19067ZM89.941 20.739C89.941 21.2708 89.5153 21.8025 88.8766 21.8025C88.3444 21.8025 87.8122 21.2708 87.8122 20.739C87.8122 20.1008 88.3444 19.6754 88.8766 19.6754C89.5153 19.6754 89.941 20.1008 89.941 20.739ZM125.066 24.1423C125.066 24.5677 127.727 27.0138 130.92 29.6726C134.113 32.2251 136.455 34.6712 135.923 34.9903C135.497 35.203 133.475 34.0331 131.559 32.2251C129.643 30.5235 127.833 29.3536 127.408 29.779C126.982 30.2044 128.046 31.4807 129.749 32.7569C131.452 34.0331 135.284 37.2237 138.264 39.9889C141.245 42.6477 145.183 46.1573 146.886 47.7527C148.695 49.2416 149.228 50.1988 148.27 49.8798C147.205 49.5607 146.354 49.5607 146.354 49.9861C146.354 50.4116 147.205 51.4751 148.27 52.3259C149.334 53.2831 149.44 53.6022 148.482 53.0704C147.631 52.645 146.034 51.5814 144.97 50.7306C142.309 48.3908 141.883 49.6671 143.693 54.0275C145.928 59.5579 145.609 60.3024 143.054 55.3038C141.99 53.0704 141.138 50.6243 141.351 49.9861C141.564 49.4543 141.032 48.3908 140.074 47.6464C139.116 47.0082 138.69 46.1573 139.116 45.7319C139.435 45.3065 140.819 46.051 141.99 47.2209C144.225 49.4543 146.354 50.1989 146.354 48.6035C146.354 48.0718 144.438 46.6891 142.096 45.3066C139.755 44.0303 137.413 42.116 136.774 41.1588C135.603 39.3508 135.603 40.2016 137.306 47.8591C137.626 49.0289 137.094 48.3908 136.242 46.4764C135.39 44.6685 134.22 43.0731 133.581 43.0731C133.049 43.0731 132.836 42.3287 133.262 41.3715C133.687 40.0952 133.475 39.7762 132.41 40.0952C130.601 40.7333 124.747 31.6933 125.492 29.5662C125.811 28.7155 125.705 28.29 125.172 28.6091C124.321 29.1409 119.744 21.9089 119.744 20.1008C119.744 19.25 124.959 23.2914 125.066 24.1423ZM94.9436 30.9489C94.6243 31.2679 93.6664 31.3743 92.9213 31.0552C92.0698 30.7361 92.3891 30.4171 93.5599 30.4171C94.7308 30.3107 95.3694 30.6298 94.9436 30.9489ZM120.595 41.9033C120.063 44.5621 118.147 44.243 116.231 41.0524C113.783 36.7983 113.89 36.4792 117.615 38.6063C119.425 39.5635 120.702 41.0524 120.595 41.9033ZM81.0001 40.4143C86.7478 41.9033 91.8569 43.4985 92.3891 44.0303C93.4535 45.0938 85.6834 43.8176 83.4482 42.5414C82.171 41.6906 82.171 41.9033 83.4482 43.3922C84.7255 45.0939 84.6191 45.0938 80.7872 43.7112C63.4377 37.33 63.5441 35.9474 81.0001 40.4143ZM130.069 47.54C130.388 48.4972 131.133 49.1353 131.772 49.0289C132.517 48.8162 132.73 48.9225 132.304 49.1353C130.707 49.9861 131.452 51.2623 134.326 52.5386C136.668 53.6021 136.881 54.0275 135.603 54.8784C134.539 55.6228 134.539 56.1546 135.39 56.4736C138.051 57.6436 141.138 61.1532 140.5 62.2167C140.074 62.8549 140.393 64.1311 141.138 64.9819C143.373 67.6407 141.67 67.5344 139.222 64.7692C137.519 62.8549 137.306 62.2167 138.477 62.2167C139.435 62.2167 139.754 61.685 139.435 61.1533C139.009 60.5151 138.371 60.3024 137.839 60.6215C136.774 61.2596 134.007 57.4308 133.368 54.772C133.049 53.0704 131.452 51.5814 129.962 51.5814C129.43 51.5814 129.856 52.5386 130.92 53.7085C131.984 54.8784 132.517 56.1546 132.197 56.58C131.133 57.5372 128.366 53.6021 128.259 51.2623C128.259 49.9861 127.833 49.5607 126.982 50.0925C126.237 50.5179 125.917 50.5179 126.343 49.9861C126.769 49.5607 126.13 47.4336 124.853 45.4129L122.511 41.6906L126.13 43.7112C128.046 44.7748 129.856 46.5828 130.069 47.54ZM151.782 46.9019C152.314 48.4972 152.634 49.9861 152.314 50.1988C152.101 50.4115 151.463 49.1353 150.824 47.4336C149.44 43.3922 150.292 43.0731 151.782 46.9019ZM109.1 46.2637C109.1 46.7955 108.887 47.3273 108.674 47.3273C108.355 47.3273 107.823 46.7955 107.503 46.2637C107.184 45.6256 107.397 45.2002 107.929 45.2002C108.568 45.2002 109.1 45.6256 109.1 46.2637ZM181.479 47.3273C181.479 47.8591 181.266 48.3908 181.053 48.3908C180.734 48.3908 180.201 47.8591 179.882 47.3273C179.563 46.6891 179.776 46.2637 180.308 46.2637C180.946 46.2637 181.479 46.6891 181.479 47.3273ZM78.552 49.1353C77.807 49.348 76.5297 49.348 75.8911 49.1353C75.146 48.8162 75.6782 48.6035 77.1683 48.6035C78.6585 48.6035 79.1907 48.8162 78.552 49.1353ZM90.7925 51.2623C89.7281 51.475 87.8122 51.475 86.535 51.2623C85.1513 51.0496 86.0028 50.8369 88.3444 50.8369C90.6861 50.7306 91.7505 50.9433 90.7925 51.2623ZM93.9857 54.0275C95.3694 54.0275 96.2209 54.2402 95.9016 54.5593C95.0501 55.3038 87.8122 55.5165 87.8122 54.772C87.8122 54.453 86.0028 54.2402 83.874 54.4529C80.0422 54.6656 79.9357 54.6656 83.0225 53.8148C84.8319 53.3894 87.3865 53.1767 88.8766 53.6021C90.3668 53.9212 92.602 54.1339 93.9857 54.0275ZM147.418 54.4529C147.418 54.9847 148.802 56.261 150.505 57.4308C152.314 58.6008 153.911 60.4088 154.23 61.4723C154.656 63.2803 154.443 63.2803 152.101 61.0469C150.718 59.7706 149.334 58.9198 148.908 59.2388C148.589 59.5579 149.228 60.7278 150.398 61.7913C152.953 64.3438 154.017 67.3217 152.74 68.0662C152.101 68.4916 151.676 68.1725 151.676 67.5344C151.676 66.8963 150.824 65.0883 149.866 63.5993C147.312 59.7706 145.289 53.7085 146.46 53.7085C146.992 53.7085 147.418 54.0275 147.418 54.4529ZM112.293 58.069L114.954 60.196L111.229 58.3881C106.652 56.261 106.226 55.8355 108.142 55.8355C108.994 55.8355 110.803 56.8991 112.293 58.069ZM122.511 60.196C123.363 61.5786 120.276 60.0897 117.083 57.4308C115.061 55.8356 115.167 55.8356 118.36 57.3245C120.17 58.2817 122.086 59.5579 122.511 60.196ZM130.388 60.6215C131.559 62.004 131.452 62.1104 129.962 61.5786C129.004 61.2596 128.259 60.5151 128.259 59.9833C128.259 58.6007 128.898 58.8134 130.388 60.6215ZM84.0869 61.1533C83.7675 61.685 83.9804 62.3231 84.5126 62.3231C85.1513 62.4294 86.2156 62.6422 86.7478 62.7485C87.3865 62.8549 88.3444 63.0676 88.9831 63.174C89.6217 63.174 89.0895 64.2375 87.7058 65.5137L85.1513 67.6407L88.3444 67.109C90.1539 66.8963 92.2827 67.109 93.1342 67.6407C94.305 68.4916 94.0921 68.598 92.3891 68.0662C90.899 67.6407 89.941 67.8535 89.941 68.5979C89.941 69.236 88.238 69.6615 86.0028 69.5552C83.7675 69.4488 80.7873 69.9805 79.2971 70.6187L76.6361 71.7886L79.6164 71.3631C81.5323 71.1504 82.2774 71.3631 81.6388 72.0012C80.3615 73.2775 64.3956 70.9377 64.3956 69.5552C64.3956 69.0234 65.1407 68.5979 66.0987 68.5979C66.9502 68.5979 67.3759 68.1725 67.0566 67.5344C66.7373 66.8963 67.163 66.7899 68.121 67.109C68.9725 67.5344 70.8884 67.0026 72.3786 66.0455C75.4653 64.0248 75.7846 64.4501 73.3365 67.0026C72.3786 67.9598 71.9528 69.0234 72.3786 69.4488C72.6979 69.8742 73.5494 69.3424 74.188 68.2789C75.0395 66.5772 83.1289 60.0897 84.2997 60.0897C84.5126 60.0897 84.4062 60.5151 84.0869 61.1533ZM92.602 61.1533C92.9213 61.685 92.4955 62.2167 91.5376 62.2167C90.5796 62.2167 90.1539 61.685 90.4732 61.1533C90.7925 60.5151 91.3247 60.0897 91.5376 60.0897C91.7505 60.0897 92.2827 60.5151 92.602 61.1533ZM73.6558 63.3867C71.3142 64.5565 69.2918 65.301 68.9725 65.0883C68.3339 64.3438 74.0816 61.2596 76.1039 61.2596C76.9554 61.2596 75.8911 62.2167 73.6558 63.3867ZM112.506 62.4294C113.251 62.8549 111.016 63.1739 107.291 62.9612C103.565 62.8549 100.585 62.3231 100.585 61.8976C100.585 60.8342 110.697 61.2596 112.506 62.4294ZM98.8819 64.5565C98.3497 65.301 98.669 65.5137 99.7334 65.1946C100.585 64.7692 102.714 65.5137 104.417 66.6836C107.397 68.7043 106.865 68.8106 102.288 66.8963C100.904 66.3645 100.478 66.4709 101.011 67.3217C101.543 68.1725 100.798 68.1725 98.2433 67.428C91.2183 65.1946 91.3247 65.301 93.6664 64.3438C96.966 62.9612 99.7334 63.0676 98.8819 64.5565ZM111.229 65.0883C108.781 65.6201 108.887 65.8328 113.358 68.1725C116.019 69.6615 116.977 70.5123 115.486 70.0869C108.994 68.4916 106.013 64.1311 111.548 64.4502C113.677 64.6629 113.57 64.6629 111.229 65.0883ZM167.535 69.1297V71.2568L166.577 69.1297C166.045 67.9598 165.619 66.2582 165.619 65.4073C165.513 64.0248 165.619 64.0248 166.577 65.4073C167.109 66.2582 167.535 67.9598 167.535 69.1297ZM117.296 66.0455C116.977 66.3645 116.019 66.4709 115.274 66.1519C114.422 65.8328 114.741 65.5137 115.912 65.5137C117.083 65.4073 117.722 65.7264 117.296 66.0455ZM178.924 69.3424C179.988 71.5758 181.798 75.0855 183.075 77.1062C186.481 82.8493 188.184 86.9971 186.588 86.0399C185.736 85.5081 185.63 85.8272 186.162 87.3162C187.226 89.8687 188.184 94.2291 187.226 91.9957C186.801 91.1448 185.843 89.0178 184.991 87.3162C184.14 85.7208 183.927 84.6573 184.565 84.9764C185.949 85.8272 185.949 84.87 184.672 81.8921L183.714 79.765L183.607 81.8921C183.607 83.2747 182.649 82.2112 180.84 78.7015C179.456 75.7236 178.498 74.5537 178.924 76.0427C179.243 77.5316 179.776 80.0841 179.988 81.8921C180.308 84.1255 179.988 83.7001 178.924 80.5095C177.221 75.2982 175.624 65.4073 176.582 65.4073C176.902 65.4073 177.966 67.2153 178.924 69.3424ZM57.69 68.1725C57.3707 68.4916 56.4127 68.598 55.6676 68.2789C54.8161 67.9598 55.1354 67.6407 56.3063 67.6407C57.4771 67.5344 58.1157 67.8535 57.69 68.1725ZM123.469 69.5552C125.811 70.6187 128.259 71.3631 129.004 71.0441C129.749 70.725 130.388 71.0441 130.388 71.6822C130.388 73.0648 126.556 73.2775 125.598 71.8949C125.279 71.3632 123.576 70.6187 121.873 70.1932C120.063 69.7678 118.68 69.0234 118.68 68.4916C118.68 67.2154 118.68 67.2154 123.469 69.5552ZM159.126 70.725C159.126 71.7885 159.765 73.1711 160.51 73.5966C161.149 74.022 162.532 75.4045 163.384 76.4681C164.874 78.3824 164.874 78.4888 162.532 76.9998C161.255 76.149 159.446 74.022 158.594 72.214C156.678 68.2789 156.572 67.109 158.062 68.0662C158.701 68.3853 159.126 69.6615 159.126 70.725ZM171.26 77.957C171.473 81.254 171.367 82.7429 171.154 81.0413C170.941 79.446 170.303 78.1697 169.77 78.1697C169.238 78.1697 168.812 76.0427 168.919 73.3839C169.238 66.8963 170.835 69.9805 171.26 77.957ZM141.138 71.4695C142.522 73.1711 142.415 73.2775 140.819 71.8949C139.009 70.5123 138.477 69.6615 139.329 69.6615C139.542 69.6615 140.393 70.5123 141.138 71.4695ZM156.785 72.3203C156.465 72.6393 155.827 72.1076 155.507 71.0441C154.869 69.5551 154.975 69.4488 156.04 70.4059C156.785 71.1505 157.104 72.0012 156.785 72.3203ZM86.4285 71.3631C86.1092 71.6822 85.1513 71.7886 84.4062 71.4695C83.5547 71.1505 83.874 70.8314 85.0448 70.8314C86.2156 70.725 86.8543 71.0441 86.4285 71.3631ZM125.385 77.1062C124.321 78.0634 115.274 77.2126 115.912 76.149C116.125 75.83 118.573 75.6172 121.341 75.83C124.108 76.0427 125.917 76.6808 125.385 77.1062ZM157.743 78.3824C157.423 79.1269 157.21 78.5952 157.21 77.1062C157.21 75.6172 157.423 75.0855 157.743 75.7236C157.956 76.4681 157.956 77.7443 157.743 78.3824ZM130.388 78.0634C130.388 78.5952 131.665 79.3397 133.155 79.6587C134.752 80.0841 135.71 80.7222 135.39 81.0413C134.539 81.8921 128.259 79.2333 128.259 78.0634C128.259 77.5316 128.791 77.1062 129.323 77.1062C129.962 77.1062 130.388 77.5316 130.388 78.0634ZM152.527 80.8286C152.208 81.1476 151.569 80.6159 151.25 79.5524C150.611 78.0634 150.718 77.957 151.782 78.9142C152.527 79.6587 152.846 80.5095 152.527 80.8286ZM138.903 81.3604C138.903 81.8921 138.69 82.4239 138.477 82.4239C138.158 82.4239 137.626 81.8921 137.306 81.3604C136.987 80.7222 137.2 80.2968 137.732 80.2968C138.371 80.2968 138.903 80.7222 138.903 81.3604ZM176.263 88.1669C176.795 88.8051 177.221 90.1877 177.221 91.3575C177.115 93.3783 177.008 93.3783 175.624 90.9321C174.773 89.4432 174.134 86.7844 174.241 85.0827C174.347 82.2112 174.347 82.2112 174.773 84.551C175.092 86.0399 175.731 87.6352 176.263 88.1669ZM169.664 88.8051C170.196 90.5067 170.622 91.9957 170.409 91.9957C170.303 91.9957 169.132 90.5067 167.854 88.8051C166.045 86.4653 165.832 85.6145 167.003 85.6145C167.854 85.6145 169.025 86.9971 169.664 88.8051ZM181.904 89.8686C182.33 92.5275 182.224 93.1656 181.479 91.9957C180.946 91.1448 180.414 89.2305 180.414 87.8479C180.414 84.4446 181.053 85.2954 181.904 89.8686ZM164.129 90.0814C163.81 90.9322 163.49 90.6131 163.49 89.4432C163.384 88.2733 163.703 87.6352 164.023 88.0606C164.342 88.3797 164.448 89.3369 164.129 90.0814ZM139.967 91.4639L136.242 92.8465L139.755 92.9529C141.67 93.0592 143.054 93.4846 142.735 94.0164C142.415 94.5482 142.735 94.8672 143.48 94.7609C147.099 94.4418 155.827 96.4625 156.359 97.8451C156.785 99.015 156.359 99.1214 154.337 98.3769C152.634 97.7388 151.676 97.8451 151.356 98.6959C150.824 100.398 152.846 104.758 154.124 104.758C154.762 104.758 154.975 105.077 154.656 105.396C153.804 106.141 149.547 103.482 149.547 102.099C149.44 100.61 141.138 95.6117 137.306 94.8672C134.433 94.2291 134.326 94.3354 136.561 95.399C137.839 96.0371 138.903 96.9943 138.903 97.4197C138.903 97.9515 140.393 99.1213 142.203 99.9722C144.012 100.929 145.289 101.993 144.97 102.206C144.438 102.737 140.712 100.929 137.839 98.8023C134.326 96.1435 128.046 93.0592 125.811 92.9529C121.021 92.7402 131.984 90.0814 137.839 90.0814H143.693L139.967 91.4639ZM189.674 92.2084C189.355 93.0592 189.036 92.7402 189.036 91.5703C188.929 90.4004 189.249 89.7623 189.568 90.1877C189.887 90.5067 189.994 91.4639 189.674 92.2084ZM181.266 97.4197C183.288 100.61 182.117 101.036 179.988 97.8451C179.031 96.3561 178.605 95.1863 179.031 95.1863C179.563 95.1863 180.521 96.1435 181.266 97.4197ZM188.397 100.398C188.823 101.993 188.716 102.631 188.078 102.206C187.546 101.887 186.801 100.398 186.481 98.8023C185.949 95.6117 187.333 96.6752 188.397 100.398ZM130.069 99.015C129.749 99.3341 128.791 99.4404 128.046 99.1214C127.195 98.8023 127.514 98.4833 128.685 98.4833C129.856 98.3769 130.494 98.6959 130.069 99.015ZM172.963 101.78C172.963 102.312 172.218 102.099 171.367 101.142C170.515 100.291 169.77 99.2277 169.77 98.8023C169.77 98.4833 170.515 98.696 171.367 99.4404C172.218 100.185 172.963 101.248 172.963 101.78ZM161.255 106.141C162.532 107.736 163.384 109.438 162.958 109.757C162.107 110.608 159.02 107.949 159.659 106.885C159.978 106.353 159.339 105.715 158.275 105.396C157.21 104.971 155.188 103.588 153.804 102.099L151.356 99.4404L155.082 101.355C157.21 102.312 159.978 104.545 161.255 106.141ZM182.543 105.396C182.543 106.247 182.117 106.885 181.479 106.885C180.946 106.885 180.414 106.46 180.414 105.928C180.414 105.396 180.095 104.014 179.669 102.95C179.031 101.248 179.137 101.248 180.734 102.525C181.691 103.269 182.543 104.652 182.543 105.396ZM207.45 104.226C207.769 105.077 207.556 105.822 207.024 105.822C206.385 105.822 205.96 105.077 205.96 104.226C205.96 103.376 206.172 102.631 206.385 102.631C206.598 102.631 207.024 103.376 207.45 104.226ZM135.39 104.333C135.071 104.652 134.113 104.758 133.368 104.439C132.517 104.12 132.836 103.801 134.007 103.801C135.178 103.695 135.816 104.014 135.39 104.333ZM192.655 110.182C195.209 117.84 194.038 117.733 191.271 109.969C189.994 106.46 189.462 103.907 189.887 104.226C190.419 104.545 191.697 107.204 192.655 110.182ZM201.596 112.522C201.596 116.563 201.276 117.521 200.638 115.925C199.36 112.841 199.36 105.503 200.638 106.353C201.276 106.672 201.702 109.544 201.596 112.522ZM165.193 110.288C164.874 111.139 164.555 110.82 164.555 109.65C164.448 108.48 164.768 107.842 165.087 108.268C165.406 108.587 165.513 109.544 165.193 110.288ZM151.143 111.884C155.082 112.522 155.188 112.628 152.74 113.479C150.398 114.224 150.505 114.224 153.485 114.011C155.401 113.798 156.678 114.011 156.359 114.543C156.04 114.968 154.762 115.393 153.485 115.393C151.25 115.5 151.25 115.5 153.166 116.563C154.23 117.201 156.572 117.946 158.488 118.052C161.468 118.371 168.706 121.349 168.706 122.306C168.706 122.519 166.684 122.094 164.342 121.243C161.894 120.392 158.807 119.648 157.53 119.648C156.253 119.648 154.017 118.797 152.634 117.627C150.505 116.032 148.695 115.181 144.225 113.692C143.906 113.692 141.99 113.16 139.967 112.735C136.881 111.99 136.668 111.777 138.371 111.033C140.393 110.182 141.883 110.288 151.143 111.884ZM174.56 118.69C174.986 120.392 175.944 121.775 176.795 121.775C177.647 121.775 178.285 122.306 178.285 122.945C178.285 123.476 177.753 123.689 177.008 123.264C176.157 122.732 176.05 123.051 176.476 124.327C176.902 125.284 176.795 125.922 176.263 125.603C175.305 124.965 168.706 112.522 168.706 111.352C168.706 109.544 174.028 116.138 174.56 118.69ZM218.839 121.562C218.945 126.986 218.626 131.772 218.2 132.197C217.668 132.623 217.668 132.091 217.987 131.027C218.413 130.07 218.2 129.219 217.668 129.219C217.029 129.219 216.604 132.091 216.604 135.601C216.604 139.11 216.178 141.982 215.539 141.982C215.007 141.982 214.475 143.258 214.475 144.853C214.368 147.087 214.155 147.406 213.41 146.236C212.559 144.747 214.049 134.643 216.178 127.199C217.455 122.732 214.475 125.816 211.707 131.772C210.324 134.75 209.153 136.558 209.153 135.92C209.153 134.75 209.898 132.516 212.985 124.433C213.41 123.264 213.623 121.881 213.517 121.349C213.304 120.286 217.774 110.82 218.307 111.352C218.413 111.565 218.732 116.138 218.839 121.562ZM186.588 114.862C186.268 115.181 185.63 114.649 185.31 113.585C184.672 112.096 184.778 111.99 185.843 112.947C186.588 113.692 186.907 114.543 186.588 114.862ZM145.396 117.414C144.544 117.946 143.267 118.159 142.415 117.84C140.18 116.989 140.819 116.457 144.012 116.457C146.141 116.457 146.46 116.776 145.396 117.414ZM151.782 119.222C153.592 120.073 154.762 121.136 154.443 121.456C154.124 121.775 152.314 121.03 150.398 119.754C146.247 117.201 147.205 116.776 151.782 119.222ZM161.681 122.413C162.639 123.264 163.703 123.795 164.235 123.476C164.661 123.264 165.087 123.902 165.087 124.965C165.087 127.305 162.958 126.454 159.765 122.945C157.423 120.392 159.233 119.86 161.681 122.413ZM205.853 126.454C206.385 129.219 206.385 131.134 205.853 130.602C204.895 129.645 203.192 119.86 204.257 120.817C204.576 121.137 205.321 123.689 205.853 126.454ZM201.596 130.496C201.702 138.472 200.105 136.451 199.893 128.369C199.68 123.476 199.893 121.881 200.638 123.37C201.17 124.54 201.596 127.73 201.596 130.496ZM142.096 123.902C141.245 124.433 139.755 124.859 138.903 124.859C137.839 124.859 138.051 124.54 139.435 123.902C142.309 122.625 144.012 122.625 142.096 123.902ZM150.931 124.646C150.186 124.859 148.908 124.859 148.27 124.646C147.525 124.327 148.057 124.114 149.547 124.114C151.037 124.114 151.569 124.327 150.931 124.646ZM170.196 125.178C169.877 125.603 169.238 126.029 168.599 126.029C168.067 126.029 167.642 125.603 167.642 125.178C167.642 124.646 168.387 124.221 169.238 124.221C170.09 124.221 170.515 124.646 170.196 125.178ZM195.635 129.751L196.274 132.942L194.783 129.751C193.08 126.135 192.548 122.094 194.145 124.965C194.677 125.816 195.316 127.943 195.635 129.751ZM145.609 125.71C144.864 125.922 143.586 125.922 142.948 125.71C142.203 125.391 142.735 125.178 144.225 125.178C145.715 125.178 146.247 125.391 145.609 125.71ZM183.501 130.496C185.523 135.92 185.63 137.94 183.714 134.005C181.479 129.538 181.159 128.156 182.011 128.156C182.33 128.156 182.969 129.219 183.501 130.496ZM176.902 131.985C178.818 133.686 179.137 134.324 177.753 133.58C174.347 131.985 171.26 129.326 172.644 129.219C173.389 129.219 175.305 130.496 176.902 131.985ZM179.137 136.877C179.669 137.621 180.521 139.429 180.84 140.918C181.585 143.471 181.585 143.577 179.882 141.45C177.221 138.153 175.944 135.601 177.008 135.601C177.54 135.601 178.498 136.239 179.137 136.877ZM188.61 137.94C188.291 138.791 187.971 138.472 187.971 137.302C187.865 136.132 188.184 135.494 188.504 135.92C188.823 136.239 188.929 137.196 188.61 137.94ZM220.542 137.94C220.222 138.791 219.903 138.472 219.903 137.302C219.797 136.132 220.116 135.494 220.435 135.92C220.755 136.239 220.861 137.196 220.542 137.94ZM204.15 156.339C204.469 161.019 204.363 163.678 203.937 162.189C203.511 160.7 202.766 155.701 202.447 151.022C202.128 146.342 202.234 143.683 202.66 145.172C203.086 146.661 203.831 151.66 204.15 156.339ZM206.705 149.639C206.492 151.022 206.279 150.171 206.279 147.831C206.172 145.491 206.385 144.428 206.705 145.385C206.918 146.449 206.918 148.363 206.705 149.639ZM216.923 146.236C217.242 147.406 217.029 148.363 216.497 148.363C215.965 148.363 215.539 147.406 215.539 146.236C215.539 145.066 215.752 144.109 215.965 144.109C216.178 144.109 216.604 145.066 216.923 146.236ZM177.221 146.13C177.221 146.555 176.05 146.768 174.56 146.449C173.07 146.236 171.899 145.81 171.899 145.598C171.899 145.385 173.07 145.172 174.56 145.172C176.05 145.172 177.221 145.598 177.221 146.13ZM198.402 151.234C199.999 156.871 199.041 156.765 197.232 151.128C196.38 148.469 196.061 146.555 196.487 146.874C197.019 147.087 197.87 149.107 198.402 151.234ZM152.74 148.363C152.74 148.895 151.995 149.107 151.143 148.788C150.292 148.363 149.547 147.938 149.547 147.725C149.547 147.512 150.292 147.299 151.143 147.299C151.995 147.299 152.74 147.725 152.74 148.363ZM135.178 150.703C134.22 151.341 133.155 151.447 132.836 151.128C132.41 150.809 132.73 150.49 133.475 150.49C134.22 150.49 134.433 150.065 134.113 149.426C133.687 148.788 134.22 148.682 135.284 149.107C136.881 149.746 136.881 149.852 135.178 150.703ZM162.852 151.554C163.916 152.723 164.555 153.681 164.235 153.681C163.916 153.681 162.852 152.723 161.787 151.554C160.723 150.384 160.084 149.426 160.404 149.426C160.723 149.426 161.787 150.384 162.852 151.554ZM211.814 155.276C211.494 158.041 210.962 160.062 210.643 159.849C210.43 159.53 210.536 157.084 210.856 154.319C211.282 151.66 211.814 149.639 212.133 149.852C212.346 150.171 212.24 152.617 211.814 155.276ZM169.132 153.255C169.77 153.043 169.983 153.149 169.557 153.362C169.025 153.681 168.706 154.319 168.706 154.85C168.706 155.489 169.238 155.595 169.77 155.276C170.409 154.957 170.835 155.17 170.835 155.701C170.835 156.339 170.515 156.871 170.09 156.871C168.919 156.871 165.513 153.468 165.513 152.192C165.513 151.554 165.939 151.554 166.684 152.298C167.322 152.936 168.493 153.362 169.132 153.255ZM214.794 153.574C215.007 154.638 214.9 156.233 214.368 156.978C213.73 158.041 213.41 157.403 213.41 154.957C213.41 151.128 213.943 150.49 214.794 153.574ZM181.053 155.808C185.843 158.147 191.058 162.083 189.462 162.189C188.823 162.189 187.226 161.444 185.843 160.487C183.501 158.786 183.395 158.786 184.672 161.019C185.31 162.295 186.481 163.571 187.333 163.891C188.184 164.21 188.504 165.273 188.184 166.124C187.759 167.294 187.971 167.613 188.716 167.081C190.313 166.124 192.655 170.591 191.271 171.973C190.526 172.718 189.462 171.654 187.971 168.676C184.885 162.827 179.669 157.084 175.731 155.276C173.07 154.106 172.857 153.787 174.667 153.787C175.837 153.681 178.711 154.638 181.053 155.808ZM218.519 161.125C218.519 163.465 218.413 163.465 217.668 160.594C217.242 158.786 216.816 156.446 216.816 155.276C216.816 153.574 217.029 153.681 217.668 155.808C218.094 157.297 218.519 159.636 218.519 161.125ZM159.446 156.552C158.062 156.765 155.933 156.765 154.656 156.552C153.272 156.339 154.337 156.127 156.998 156.127C159.659 156.127 160.723 156.339 159.446 156.552ZM197.232 158.467C196.912 158.786 196.274 158.254 195.954 157.19C195.316 155.701 195.422 155.595 196.487 156.552C197.232 157.297 197.551 158.147 197.232 158.467ZM180.84 161.87C183.075 164.422 184.352 166.443 183.714 166.443C183.075 166.443 182.543 166.124 182.543 165.592C182.543 165.167 180.734 162.933 178.605 160.7C176.476 158.467 175.092 156.765 175.731 156.978C176.37 157.19 178.605 159.424 180.84 161.87ZM230.866 160.806C230.547 163.04 229.908 169.102 229.483 174.42L228.631 183.991L228.312 176.547C228.099 170.059 227.992 169.527 227.247 172.824C226.715 174.845 226.609 177.61 226.822 178.78C227.141 180.056 226.928 181.439 226.396 181.758C225.757 182.183 225.544 181.439 225.864 180.056C226.289 178.036 226.183 177.929 225.119 179.205C224.161 180.482 224.054 180.056 224.586 177.078C224.906 175.058 225.331 172.186 225.544 170.697C225.757 169.208 226.502 166.762 227.141 165.06C227.78 163.465 228.738 161.019 229.376 159.53C230.866 155.595 231.611 156.233 230.866 160.806ZM200.425 161.232C200.105 162.083 199.68 161.551 199.254 160.168C198.828 158.36 198.935 157.935 199.786 158.786C200.318 159.317 200.638 160.487 200.425 161.232ZM200.318 170.059C201.063 171.761 201.489 173.356 201.17 173.675C200.531 174.42 195.316 163.146 195.422 161.125C195.422 159.636 196.061 160.806 200.318 170.059ZM215.22 166.443C215.113 171.016 214.794 172.186 214.155 170.484C213.41 168.357 214.049 160.062 215.007 160.062C215.22 160.062 215.22 162.933 215.22 166.443ZM208.195 164.316C208.727 164.316 209.153 165.379 209.153 166.656C209.153 169.634 207.343 167.932 206.705 164.316C206.492 162.827 206.492 162.295 206.705 162.933C207.024 163.678 207.663 164.316 208.195 164.316ZM219.477 170.378C219.158 171.442 218.945 170.591 218.945 168.57C218.945 166.549 219.158 165.699 219.477 166.656C219.69 167.719 219.69 169.421 219.477 170.378ZM222.99 173.888C222.458 176.228 222.138 176.759 222.032 175.27C221.925 173.037 222.99 169.315 223.522 169.846C223.735 170.059 223.522 171.867 222.99 173.888ZM206.385 172.399C206.705 173.25 206.598 173.675 205.96 173.356C205.321 173.037 204.895 172.292 204.895 171.654C204.895 170.165 205.64 170.484 206.385 172.399ZM219.69 181.758C219.903 186.544 219.052 184.629 218.413 178.674C217.987 175.058 218.094 174.207 218.732 176.015C219.158 177.504 219.584 180.056 219.69 181.758ZM214.475 178.355C214.475 182.183 214.049 182.077 212.985 177.823C212.559 176.121 212.772 174.951 213.41 174.951C213.943 174.951 214.475 176.44 214.475 178.355ZM196.38 177.078C196.38 177.61 196.167 178.142 195.954 178.142C195.635 178.142 195.103 177.61 194.783 177.078C194.464 176.44 194.677 176.015 195.209 176.015C195.848 176.015 196.38 176.44 196.38 177.078ZM207.769 178.355C207.45 179.205 207.13 178.886 207.13 177.716C207.024 176.547 207.343 175.908 207.663 176.334C207.982 176.653 208.088 177.61 207.769 178.355ZM212.133 185.587C212.133 186.544 211.814 186.331 211.282 185.055C210.749 183.885 210.43 181.971 210.43 180.801C210.43 179.099 210.643 179.205 211.282 181.332C211.707 182.821 212.133 184.736 212.133 185.587ZM209.046 189.309C209.046 189.841 208.621 189.628 208.088 188.777C207.556 187.926 207.13 186.437 207.13 185.587C207.13 183.885 208.94 187.288 209.046 189.309ZM220.222 189.309C220.755 191.649 220.648 192.074 219.797 190.904C219.264 190.053 218.732 188.352 218.732 187.288C218.732 184.523 219.371 185.374 220.222 189.309ZM226.715 189.522C226.289 190.585 225.438 193.031 224.906 194.946C223.416 200.263 222.99 198.668 224.374 192.712C224.906 189.947 225.97 187.714 226.502 187.714C227.035 187.714 227.141 188.565 226.715 189.522ZM186.268 189.947C187.439 191.755 186.162 192.181 184.672 190.372C183.82 189.415 183.82 188.777 184.459 188.777C185.098 188.777 185.949 189.309 186.268 189.947ZM197.019 193.989C202.873 197.711 206.492 201.114 210.111 206.326C210.856 207.495 209.579 206.432 207.237 203.879C204.576 201.114 202.341 199.625 201.596 200.051C200.744 200.476 200.638 200.37 201.063 199.625C201.383 198.987 200.851 197.924 199.68 197.285C196.487 195.584 195.741 198.03 198.615 201.114C199.893 202.497 200.744 203.986 200.318 204.305C199.999 204.73 200.425 205.687 201.276 206.538C202.128 207.495 202.66 208.453 202.341 208.772C201.596 209.516 198.509 206.857 198.509 205.475C198.509 204.411 193.4 196.328 192.016 195.158C190.632 193.989 188.929 189.841 189.781 189.841C190.313 189.841 193.506 191.649 197.019 193.989ZM229.057 193.244C228.738 193.989 228.525 193.457 228.525 191.968C228.525 190.479 228.738 189.947 229.057 190.585C229.27 191.33 229.27 192.606 229.057 193.244ZM185.843 194.839C187.226 196.435 187.12 196.435 184.991 195.265C182.437 193.989 181.904 193.031 183.501 193.031C184.033 193.031 185.098 193.776 185.843 194.839ZM220.542 200.157C220.222 201.221 220.01 200.582 220.01 198.881C220.01 197.073 220.222 196.328 220.542 196.966C220.755 197.711 220.755 199.2 220.542 200.157ZM233.208 204.518C232.144 207.921 231.824 208.346 232.25 205.794C232.676 203.773 232.995 200.689 232.889 198.987C232.889 196.647 233.102 196.328 233.847 197.711C234.485 198.881 234.272 201.221 233.208 204.518ZM244.171 208.346C243.213 209.197 243.107 209.091 243.639 207.602C243.958 206.538 244.384 204.837 244.384 203.879C244.491 202.922 244.81 203.241 245.023 204.624C245.342 206.006 244.916 207.602 244.171 208.346ZM228.844 212.919L229.376 218.024L228.312 213.77C226.183 205.368 226.077 203.986 227.247 206.006C227.886 206.964 228.525 210.048 228.844 212.919ZM208.94 214.302C208.727 216.323 208.195 215.791 206.172 211.537L203.618 206.326L206.492 209.091C208.301 210.899 209.259 212.707 208.94 214.302ZM225.864 214.515C225.544 215.366 225.225 215.047 225.225 213.877C225.119 212.707 225.438 212.069 225.757 212.494C226.077 212.813 226.183 213.77 225.864 214.515ZM222.032 225.469C221.713 226.001 221.074 224.618 220.648 222.279C219.477 215.472 219.903 213.238 221.287 219.088C222.032 221.959 222.351 224.831 222.032 225.469ZM215.113 222.704C215.646 225.044 215.433 226.001 214.475 226.001C213.623 226.001 213.41 225.682 213.73 225.363C214.049 224.937 214.049 223.874 213.517 222.917C212.985 221.959 212.346 219.726 211.92 218.024C211.175 214.94 211.175 214.834 212.878 217.174C213.73 218.45 214.794 221.002 215.113 222.704ZM229.376 225.895C229.376 230.68 228.738 229.83 227.992 223.98C227.567 220.896 227.78 219.726 228.418 220.79C228.95 221.534 229.376 223.874 229.376 225.895ZM225.97 226.533C225.97 228.234 225.757 228.128 225.119 226.001C223.948 222.385 223.948 219.62 225.119 222.279C225.651 223.448 225.97 225.363 225.97 226.533ZM221.393 238.232C222.351 243.762 220.01 238.87 218.626 232.488C217.774 228.234 217.136 227.171 216.391 228.234C215.539 229.404 215.433 229.298 215.965 227.809C216.284 226.745 216.604 225.256 216.71 224.618C216.816 222.81 220.755 234.403 221.393 238.232ZM228.738 238.551C229.163 243.762 229.057 246.102 228.312 245.676C227.78 245.357 227.247 241.635 227.247 237.487C227.247 228.022 227.78 228.447 228.738 238.551ZM211.707 238.338C212.239 239.827 212.133 239.933 210.749 238.763C208.94 237.274 208.727 236.636 210.111 236.636C210.643 236.636 211.388 237.381 211.707 238.338ZM217.029 245.889C217.987 247.803 218.519 249.399 218.307 249.399C217.668 249.399 214.475 243.549 214.475 242.379C214.475 241.209 215.007 242.06 217.029 245.889ZM233.314 248.548C232.995 249.292 232.782 248.76 232.782 247.272C232.782 245.783 232.995 245.251 233.314 245.889C233.527 246.633 233.527 247.91 233.314 248.548ZM241.084 252.589C239.914 253.759 238.956 255.248 238.956 255.993C238.956 256.631 238.636 256.95 238.317 256.631C237.359 255.673 241.084 249.292 242.149 249.93C242.681 250.249 242.149 251.526 241.084 252.589ZM222.99 256.524C222.99 257.269 222.564 257.907 221.925 257.907C221.393 257.907 220.861 257.269 220.861 256.418C220.861 255.567 220.542 253.972 220.222 252.908C219.584 251.207 219.69 251.207 221.18 253.121C222.138 254.291 222.99 255.886 222.99 256.524ZM233.421 261.098C233.421 266.096 233.314 266.522 232.569 263.863C231.292 259.821 231.399 250.037 232.676 253.121C233.102 254.291 233.527 257.907 233.421 261.098ZM223.735 269.818C223.416 270.563 223.203 270.031 223.203 268.542C223.203 267.053 223.416 266.522 223.735 267.16C223.948 267.904 223.948 269.18 223.735 269.818ZM223.735 274.073C223.416 274.923 223.096 274.604 223.096 273.434C222.99 272.265 223.309 271.626 223.628 272.052C223.948 272.371 224.054 273.328 223.735 274.073Z" fill="#213C4E"/>
</svg>
