<svg width="336" height="55" viewBox="0 0 336 55" fill="none" xmlns="http://www.w3.org/2000/svg">
<path d="M9.50689 0.751568C5.18413 2.07787 2.18766 6.548 3.02274 10.4287C3.56309 13.0322 5.47886 16.3234 7.59112 18.3865L9.60514 20.3023V24.9689V29.6355L7.9841 28.0636C6.41219 26.5408 6.31394 26.4917 5.52798 27.3759C4.74203 28.211 4.84027 28.4074 7.14902 30.6671L9.60514 33.0741V39.853C9.60514 46.288 9.65426 46.6318 10.5876 46.6318C11.57 46.6318 11.57 46.288 11.57 32.8776V19.1724L9.26128 16.8146C5.57711 12.983 4.34905 9.34798 5.87184 6.40064C6.75604 4.68136 7.49288 4.14101 9.85075 3.10944L11.7174 2.32348L10.9314 3.55154C9.01567 6.548 9.45777 10.8216 12.356 17.0111L14.0261 20.4988V33.5653C14.0261 46.288 14.0753 46.6318 15.0086 46.6318C15.991 46.6318 15.991 46.288 15.991 32.9267V19.2216L14.2718 15.6356C11.4227 9.54447 11.3735 5.61468 14.1735 3.8954C17.4156 1.88138 22.7208 3.15857 23.8997 6.25327C24.6366 8.11992 24.1454 13.8672 22.9173 17.6005C22.0822 20.1549 21.8857 21.9233 21.8857 27.1303V33.5653L19.4787 31.2074C17.8577 29.6355 16.9735 29.046 16.7279 29.439C16.4823 29.7829 17.4156 31.1092 19.1349 32.8285L21.8857 35.6284V41.1301C21.8857 45.6494 22.0331 46.6318 22.6226 46.6318C23.212 46.6318 23.3594 44.5687 23.4576 32.7302C23.605 19.9093 23.7033 18.583 24.8331 14.5549C25.8155 10.9199 25.9138 9.8392 25.5208 7.82519L25.0296 5.46732L26.2576 5.95854C26.9453 6.25327 28.6646 6.59713 29.9909 6.79362C32.2997 7.08835 32.447 7.1866 32.5944 8.66027C32.7909 10.6743 31.8084 12.4918 28.5172 16.4216L25.8155 19.5654V33.1232V46.6318H27.5348C29.205 46.6318 29.2541 46.5827 29.2541 44.7161C29.2541 43.0459 29.5979 42.4564 31.5628 40.5407C33.8225 38.4284 33.8716 38.281 33.0856 37.446C32.2505 36.66 32.1523 36.66 31.0716 37.6916C30.433 38.281 29.7944 38.7723 29.5979 38.7723C29.4014 38.7723 29.2541 34.7934 29.2541 29.8811V20.99L31.8084 17.9444C35.0996 14.0146 36.2786 11.362 36.033 8.26729C35.8856 6.05678 35.9838 5.86029 37.0154 5.86029C39.0785 5.86029 41.4855 7.1866 41.8294 8.5129C42.1733 9.98657 40.3066 14.3585 38.0961 17.1584L36.6224 19.0251V32.8285C36.6224 46.288 36.6224 46.6318 37.6049 46.6318C38.5382 46.6318 38.5873 46.288 38.5873 33.5653V20.4988L40.3066 18.1409C43.8434 13.3269 44.9732 8.70939 43.3031 6.1059C42.5171 4.92697 42.5662 4.87785 43.4013 4.87785C44.6785 4.87785 46.7908 7.08835 47.1837 8.85675C47.6258 10.8708 45.5627 15.0462 43.0083 17.3549L41.0434 19.1233V32.8776V46.6318H42.2715H43.4996V39.853V33.0741L45.9557 30.6671C47.282 29.3899 48.2644 28.0636 48.0679 27.818C47.9206 27.5724 46.8399 28.3092 45.6609 29.4881L43.4996 31.6004V25.9513V20.2531L45.4645 18.1409C50.2293 12.983 50.7205 7.6287 46.7416 3.94452C44.9732 2.27436 41.6329 2.07787 36.9663 3.35505C31.6119 4.82872 29.205 4.68136 25.3243 2.86383C19.2331 -0.0343895 14.2718 -0.722099 9.50689 0.751568Z" fill="white"/>
<path d="M20.2263 7.62759C19.1456 8.02057 17.8684 8.65916 17.4263 9.10126C16.3947 9.98546 14.7246 14.0626 15.1667 14.5047C15.707 15.0451 18.507 14.1117 20.0298 12.8346C21.5035 11.5574 22.8789 9.10126 22.8789 7.57847C22.8789 6.69426 22.7315 6.69426 20.2263 7.62759Z" fill="white"/>
<path d="M0.0823051 18.4837C0.770018 21.431 3.66824 25.017 5.3384 25.017C5.68225 25.017 6.41909 25.1643 7.05768 25.3117C7.94188 25.5573 8.13837 25.4099 8.13837 24.4766C8.13837 22.3152 6.07523 19.417 3.71736 18.2381C0.671773 16.7153 -0.310674 16.7644 0.0823051 18.4837Z" fill="white"/>
<path d="M30.25 24.4771C30.25 26.442 33.1482 29.4385 35.064 29.4385C36.2429 29.4385 35.6535 27.3753 33.9833 25.7052C32.4114 24.1333 30.25 23.4455 30.25 24.4771Z" fill="white"/>
<path d="M49.008 33.6133C46.8958 34.5958 46.2572 35.1852 45.4712 36.9045C43.752 40.6378 44.2923 41.4729 47.5835 40.0483C49.5975 39.2133 51.5624 37.0027 52.2992 34.8905C53.2817 31.894 52.987 31.7467 49.008 33.6133Z" fill="white"/>
<path d="M13.0625 51.5439V54H26.3255H39.5886V51.5439V49.0878H26.3255H13.0625V51.5439Z" fill="white"/>
<path d="M66.1641 1.74178C66.1641 2.32393 66.9791 2.90609 67.9105 2.90609C69.4241 2.90609 69.657 6.39902 69.657 26.8909C69.657 48.4306 69.4241 51.1085 67.6777 52.5057C65.9312 53.7864 67.2119 54.0193 76.41 54.1357C83.3959 54.1357 87.0052 53.67 86.5395 52.9714C86.1902 52.2728 85.0259 51.8071 84.0944 51.8071C82.6973 51.8071 82.4644 47.8485 82.4644 27.3566V2.90609H90.6146H98.7647V27.3566C98.7647 47.8485 98.5319 51.8071 97.1347 51.8071C96.2033 51.8071 95.0389 52.2728 94.6897 52.9714C94.2239 53.67 98.0662 54.1357 105.401 54.0193C114.483 54.0193 116.229 53.67 114.25 52.7386C111.572 51.4578 111.572 51.225 111.572 27.1237C111.572 6.39902 111.805 2.90609 113.319 2.90609C114.25 2.90609 115.065 2.32393 115.065 1.74178C115.065 1.04319 106.1 0.577465 90.6146 0.577465C75.1292 0.577465 66.1641 1.04319 66.1641 1.74178Z" fill="white"/>
<path d="M134.276 25.6101C125.661 46.4513 123.448 50.8757 121.236 51.3414C116.346 52.6221 118.442 54.1357 124.962 54.1357C128.455 54.1357 131.366 53.5536 131.366 52.9714C131.366 52.2728 130.667 51.8071 129.736 51.8071C126.708 51.8071 126.476 49.5949 128.921 44.2391L131.249 38.9997H140.447H149.645L151.625 44.2391C154.535 51.6907 158.145 54.1357 166.179 54.1357C172.582 54.1357 172.582 54.0193 170.254 52.04C168.856 50.9921 163.384 39.349 157.563 25.2608C151.858 11.7548 146.618 0.577465 145.92 0.577465C145.221 0.577465 139.982 11.8713 134.276 25.6101ZM144.639 27.2402C146.269 31.4317 147.666 35.1575 147.666 35.7396C147.666 36.2054 144.29 36.6711 140.098 36.6711C135.906 36.6711 132.53 36.4382 132.53 36.0889C132.53 33.8767 140.098 18.1586 140.797 18.8571C141.262 19.3229 143.009 23.1651 144.639 27.2402Z" fill="white"/>
<path d="M174.453 1.62533C174.453 2.32391 175.501 2.90607 176.782 2.90607C178.994 2.90607 179.11 3.72108 179.11 27.3566C179.11 47.8484 178.878 51.8071 177.48 51.8071C176.549 51.8071 175.385 52.2728 175.035 52.9714C174.57 53.67 178.412 54.1357 185.747 54.0193C194.829 54.0193 196.575 53.67 194.596 52.7385C192.151 51.5742 191.918 50.6428 191.918 42.2597V33.1781H198.089C212.177 33.1781 218.697 28.1716 218.697 17.5764C218.697 10.2412 215.903 5.93327 209.499 3.13893C204.143 0.926743 174.453 -0.470432 174.453 1.62533ZM202.629 6.399C206.006 9.7755 206.122 10.3577 205.657 18.0421C205.191 27.473 203.095 30.5002 196.226 31.6645L191.918 32.3631V17.5764V2.90607H195.527C197.972 2.90607 200.184 4.07038 202.629 6.399Z" fill="white"/>
<path d="M225.672 1.74178C225.672 2.32393 226.72 2.90609 228 2.90609C230.213 2.90609 230.329 3.7211 230.329 27.3566C230.329 47.8485 230.096 51.8071 228.699 51.8071C227.768 51.8071 226.603 52.2728 226.254 52.9714C225.788 53.67 229.398 54.1357 236.384 54.1357C245.582 54.0193 246.862 53.7864 245.232 52.5057C243.486 51.225 243.137 49.0128 243.137 39.1161V27.3566H246.397C249.424 27.3566 249.773 27.9388 253.382 38.9997C257.923 52.6221 259.437 54.1357 268.751 54.1357C274.34 54.0193 274.922 53.9029 273.059 52.5057C272.011 51.6907 269.45 46.3349 267.587 40.7462C263.628 28.9866 261.765 26.5416 256.41 25.4937C252.8 24.7951 252.684 24.6787 254.197 22.2336C255.012 20.9529 256.526 16.6449 257.574 12.9192C258.505 9.07693 260.135 5.23471 261.067 4.18683C262.813 2.55679 262.93 2.90609 262.93 7.91262C262.93 12.9192 263.163 13.3849 265.608 13.3849C268.635 13.3849 272.244 10.1248 272.244 7.4469C272.244 3.83754 268.751 0.577465 264.793 0.577465C259.786 0.577465 257.807 3.02252 255.362 12.2206C253.033 20.72 249.89 25.028 245.814 25.028C243.253 25.028 243.137 24.7951 243.137 13.967C243.137 4.88541 243.486 2.90609 244.883 2.90609C245.814 2.90609 246.629 2.32393 246.629 1.74178C246.629 1.04319 242.322 0.577465 236.151 0.577465C229.98 0.577465 225.672 1.04319 225.672 1.74178Z" fill="white"/>
<path d="M294.471 53.3796L289.518 46.4423H287.745V53.3796H286V38.2652H287.745V44.8187H288.505L294.274 38.2652H296.356L290.531 44.9073L296.553 53.3796H294.471Z" fill="white"/>
<path d="M300.168 53.3796H298.339L303.63 38.2652H305.431L310.722 53.3796H308.893L304.587 40.6563H304.474L300.168 53.3796ZM300.844 47.4755H308.217V49.0991H300.844V47.4755Z" fill="white"/>
<path d="M317.242 40.0659H319.522C320.591 40.0659 321.541 40.3169 322.371 40.8187C323.201 41.3205 323.853 42.0192 324.327 42.9146C324.801 43.8101 325.037 44.8482 325.037 46.029C325.037 47.2098 324.801 48.2504 324.327 49.1508C323.853 50.0512 323.201 50.7547 322.371 51.2615C321.541 51.7683 320.591 52.0217 319.522 52.0217H317.242C316.173 52.0217 315.223 51.7707 314.393 51.2689C313.562 50.767 312.91 50.0684 312.437 49.1729C311.963 48.2775 311.726 47.2394 311.726 46.0586C311.726 44.8777 311.963 43.8372 312.437 42.9368C312.91 42.0364 313.562 41.3328 314.393 40.8261C315.223 40.3193 316.173 40.0659 317.242 40.0659ZM317.242 41.6895C316.426 41.6895 315.736 41.8691 315.174 42.2283C314.615 42.5875 314.191 43.0942 313.9 43.7486C313.614 44.403 313.471 45.1729 313.471 46.0586C313.471 46.9343 313.614 47.6969 313.9 48.3464C314.191 48.9958 314.615 49.5001 315.174 49.8593C315.736 50.2185 316.426 50.398 317.242 50.398H319.522C320.338 50.398 321.025 50.2185 321.583 49.8593C322.146 49.5001 322.57 48.9934 322.856 48.339C323.147 47.6846 323.293 46.9146 323.293 46.029C323.293 45.1533 323.147 44.3907 322.856 43.7412C322.57 43.0918 322.146 42.5875 321.583 42.2283C321.025 41.8691 320.338 41.6895 319.522 41.6895H317.242ZM319.268 37.9995V53.9995H317.523V37.9995H319.268Z" fill="white"/>
<path d="M327.191 53.3796V38.2652H335.887V39.8888H328.936V44.9958H335.437V46.6194H328.936V51.756H336V53.3796H327.191Z" fill="white"/>
</svg>
