<svg width="46" height="46" viewBox="0 0 46 46" fill="none" xmlns="http://www.w3.org/2000/svg">
<path d="M9.27867 14.118C8.44578 14.422 8.01173 15.0735 8.00587 16.0289L8 16.5376L8.71559 18.0453C10.1526 21.0543 11.5955 23.4429 13.3141 25.6329C13.971 26.4705 16.0005 28.6109 16.8275 29.3368C18.0476 30.4039 19.7251 31.6572 20.4465 32.048C21.6372 32.6808 23.1681 32.6684 24.3588 32.0046C25.1213 31.5827 25.7255 30.863 25.9718 30.0813C26.0774 29.7463 26.095 29.5477 26.095 28.4558C26.095 27.1157 26.136 26.8862 26.3941 26.6938C26.5642 26.5698 26.9103 26.5635 27.0745 26.6876C27.139 26.7373 28.0306 27.9098 29.057 29.2934C30.0835 30.6769 31.0396 31.9177 31.1803 32.0542C31.6672 32.5071 31.761 32.5195 34.248 32.5195C36.2246 32.5195 36.4769 32.5071 36.7525 32.4079C37.3977 32.1721 37.9198 31.4462 37.9843 30.7017C38.0488 29.982 38.0195 29.9324 35.7495 26.6008C34.6058 24.9257 33.6556 23.4863 33.638 23.3994C33.6145 23.3126 33.638 23.1575 33.679 23.0458C33.7494 22.8783 35.0515 20.9364 36.9402 18.1879C37.6382 17.1705 37.8259 16.8479 37.9198 16.5004C38.1602 15.6318 37.7731 14.6888 36.993 14.2421L36.6235 14.0312H34.248H31.8725L31.5792 14.1863C31.4208 14.2669 31.1803 14.4531 31.0513 14.5957C30.9223 14.7384 30.0307 16.2212 29.0629 17.8839C28.101 19.5529 27.2329 20.9922 27.1449 21.0853C26.9455 21.29 26.6111 21.321 26.3941 21.1597C26.1067 20.9426 26.095 20.8247 26.095 18.1321C26.095 15.7683 26.0891 15.6008 25.9777 15.2844C25.7665 14.6826 25.2914 14.2421 24.6873 14.0684C24.4937 14.0126 23.6667 14.0001 21.6079 14.0126L18.7925 14.0312L18.464 14.1925C17.2909 14.7757 17.0035 16.4136 17.9068 17.369C18.0241 17.4931 18.2235 17.6544 18.3526 17.7226L18.5872 17.8467V19.2054C18.5872 20.4028 18.5754 20.5703 18.4933 20.6014C18.3584 20.6572 18.288 20.5828 17.6839 19.7266C16.8569 18.5602 16.2293 17.3938 15.543 15.7249C15.2145 14.9308 15.0151 14.6082 14.7042 14.3848C14.1881 14.0126 14.106 14.0001 11.7363 14.0001C9.8183 14.0064 9.54848 14.0188 9.27867 14.118ZM14.0062 15.5202C14.1001 15.6256 14.364 16.153 14.6045 16.7176C15.279 18.3244 15.9946 19.6087 16.8745 20.7937C17.5197 21.6623 17.7601 21.8546 18.2939 21.9228C18.8511 21.9911 19.379 21.6871 19.6723 21.1287L19.8483 20.7937L19.8658 18.7401L19.8834 16.6865L19.4553 16.6555C19.2206 16.6369 18.9684 16.5873 18.898 16.5438C18.5227 16.2957 18.5403 15.638 18.9274 15.4209C19.0447 15.3527 19.6019 15.334 21.7252 15.334C24.5582 15.334 24.5993 15.3402 24.7635 15.6442C24.8163 15.7311 24.8398 16.5625 24.8632 18.4361C24.8926 20.9984 24.8984 21.1163 25.0157 21.3893C25.1624 21.7243 25.4967 22.1338 25.7665 22.3137C25.8721 22.382 26.1243 22.4812 26.3296 22.5371C26.9924 22.717 27.6611 22.4812 28.1303 21.9166C28.2535 21.7677 29.1567 20.2601 30.1363 18.5664C31.6261 15.9979 31.9546 15.4767 32.1129 15.3961C32.2713 15.3216 32.6115 15.303 34.1776 15.303C35.2099 15.303 36.1308 15.3216 36.2364 15.3402C36.5707 15.4147 36.7936 15.7683 36.7291 16.1282C36.7173 16.2026 35.7847 17.611 34.6644 19.2489C33.5441 20.893 32.5763 22.3571 32.5177 22.506C32.3534 22.8907 32.3593 23.6724 32.5235 24.0509C32.5939 24.206 33.5617 25.6639 34.6762 27.2956C35.7906 28.9211 36.7173 30.3357 36.7408 30.4349C36.7643 30.5528 36.7408 30.6893 36.688 30.8072C36.4945 31.1918 36.5355 31.1856 34.2597 31.1856C32.9634 31.1856 32.1481 31.1608 32.0778 31.1236C32.0132 31.0864 31.11 29.9076 30.06 28.493C29.0101 27.0847 28.0423 25.8315 27.9074 25.7074C27.2329 25.0932 26.1712 25.1304 25.485 25.7942C24.9512 26.3092 24.9043 26.4953 24.8632 28.1766C24.828 29.7959 24.8104 29.8704 24.3647 30.3667C23.8602 30.9437 23.0977 31.2229 22.171 31.1732C21.4613 31.136 21.1152 30.9871 20.2178 30.3605C16.458 27.7361 13.4549 24.299 11.0852 19.9251C10.2758 18.4361 9.24935 16.2523 9.24348 16.0103C9.23761 15.7373 9.35492 15.514 9.57781 15.4023C9.73618 15.3154 10.0529 15.303 11.795 15.3216L13.8361 15.334L14.0062 15.5202Z" fill="var(--current-color)"/>
</svg>
