<svg width="345" height="579" viewBox="0 0 345 579" fill="none" xmlns="http://www.w3.org/2000/svg">
<path d="M225.508 2.05836C225.264 3.36364 224.625 4.36999 223.973 4.24792C223.321 4.12584 223.117 5.21357 223.532 7.20514C223.791 8.82969 223.622 10.9371 223.262 11.6578C222.773 12.4669 222.82 12.8136 223.534 12.6094C224.139 12.3848 224.452 13.1188 224.16 14.0774C223.956 15.1651 223.706 19.509 223.673 23.8936C223.459 32.8599 220.854 46.7829 219.229 47.0419C218.645 47.1577 217.986 48.2729 217.742 49.5781C217.376 51.5361 217.573 51.6855 218.687 50.543C220.378 48.7205 219.361 54.1591 217.052 58.6806C215.632 61.4548 215.632 61.4548 216.78 57.7291C217.445 55.3768 217.627 52.5964 217.07 51.3662C216.505 49.5719 216.709 48.4841 218.312 46.5325C220.064 44.3836 220.119 43.4931 219.207 39.9451C218.547 37.4574 218.58 33.0728 219.292 29.2657C219.964 25.6762 220.078 22.658 219.426 22.5359C218.882 22.4342 218.623 20.8096 218.949 19.0692C219.641 15.371 218.132 14.4131 216.434 17.4729C215.775 18.588 214.98 19.2273 214.498 18.7993C214.015 18.3712 213.968 19.826 214.451 22.0554C214.914 24.3937 215.126 27.473 214.841 28.9958C214.535 30.6274 214.652 33.0133 215.06 34.4407C215.985 37.3157 215.03 47.8323 214.153 45.3039C213.615 43.965 213.289 43.904 212.63 45.0191C212.141 45.8282 212.039 44.5707 212.466 42.2864C212.826 39.7643 212.655 38.2689 211.922 38.5819C211.317 38.8065 210.726 38.3581 210.868 37.5967C210.902 36.8149 210.949 35.3602 211.003 34.4697C211.057 33.5791 211.206 31.5805 211.382 30.0373C211.45 28.4738 211.225 27.8689 210.777 28.4605C209.5 30.4732 208.623 29.7462 207.208 25.8789C206.467 23.8263 205.536 22.1885 205.101 22.1071C203.905 21.8833 203.281 27.6209 204.234 30.9514C205.689 36.4025 207.165 39.9435 207.477 38.8761C207.973 36.8298 209.192 45.9519 208.792 48.6915C208.405 50.7582 207.963 50.1126 206.977 45.7625C205.922 41.1745 205.392 40.3998 203.883 41.2433C202.375 42.0869 202.327 41.7403 203.298 39.5578C204.039 38.0075 204.106 36.444 203.515 35.9956C202.944 35.4385 202.359 35.5543 202.217 36.3157C202.054 37.1859 201.442 36.8463 200.341 35.5144C199.457 34.2232 198.234 33.5439 197.826 33.918C197.33 34.1629 196.148 33.2662 195.196 31.7371C194.135 30.1876 192.816 28.8151 192.035 28.7814C191.056 28.5983 191.016 28.8159 192.021 29.4544C194.733 31.2002 192.681 31.9421 189.603 30.3528C185.477 28.3424 180.278 27.2571 180.054 28.4536C179.973 28.8887 181.747 30.2339 184.105 31.4632C186.355 32.6722 190.093 34.9478 192.391 36.5035C194.688 38.0592 197.488 39.9342 198.623 40.4843C199.738 41.1432 200.051 41.8772 199.426 42.2106C196.966 43.3265 196.778 49.1455 198.98 51.8092C200.299 53.1818 200.884 54.8674 200.415 55.5677C200.055 56.2885 200.423 57.9334 201.415 59.2449C203.4 61.868 203.388 64.3424 201.362 61.9368C199.159 59.2731 199.635 60.9383 202.382 65.5052C203.844 67.9178 204.613 70.4258 204.124 71.235C203.655 71.9353 203.676 73.628 203.996 74.9262C204.492 76.4827 204.248 77.788 203.222 79.0596C202.305 80.3516 202.142 81.2218 202.754 81.5614C204.283 82.4104 203.478 92.7298 201.956 92.4449C201.303 92.3229 201.024 90.8071 201.329 89.1755C201.655 87.4351 201.655 85.6337 201.301 85.1172C200.927 84.7095 200.675 83.6492 200.6 82.8471C200.366 72.6709 198.488 62.8626 197.02 63.4886C195.919 63.9582 193.227 60.3021 194.083 59.3365C194.402 58.8333 194.334 56.794 193.701 54.7618C192.844 52.1246 192.096 51.3092 191.193 51.9282C190.16 52.6356 189.025 52.0855 187.026 50.1354C185.531 48.5046 183.587 47.4654 182.656 47.6289C181.616 47.7721 179.809 47.2087 178.388 46.38C176.77 45.4018 175.792 45.2187 175.649 45.9801C175.548 46.524 176.255 47.557 177.281 48.0867C180.21 49.8733 181.455 52.2451 179.681 52.7014C178.968 52.9056 179.403 52.987 180.769 52.9048C182.243 52.843 184.16 53.4268 185.016 54.2625C186.464 55.5467 186.315 55.7439 183.467 55.3236L180.185 54.822L183.678 56.6015C185.642 57.532 188.117 59.3459 189.15 60.4399C190.645 62.0707 190.713 62.3086 189.381 61.609C186.629 60.0807 187.009 61.0526 190.544 64.416C193.222 66.9436 193.29 67.1814 191.02 66.0812C188.424 64.9199 188.424 64.9199 191.021 67.8826C192.516 69.5134 193.258 71.566 192.789 72.2664C191.831 73.7759 194.951 76.9491 196.371 75.9764C196.888 75.6227 196.834 76.5132 196.331 77.9954C195.849 79.3687 195.966 81.7547 196.571 83.3315C197.196 84.7995 197.367 86.295 196.85 86.6487C196.463 86.914 196.157 86.7442 196.279 86.0915C196.402 85.4389 195.565 84.4944 194.539 83.9646C193.078 83.3534 192.602 83.4896 192.834 84.6587C192.997 85.5899 193.527 86.3646 194.071 86.4664C194.615 86.5681 194.907 87.4109 194.744 88.2811C194.561 89.26 194.956 91.3604 195.65 93.0663C196.813 95.8733 196.792 95.982 195.175 95.0039C193.774 94.0664 193.625 94.2636 194.169 96.1667C195.883 101.441 196.945 106.593 196.32 106.927C195.933 107.192 195.797 106.716 195.959 105.846C196.054 104.738 195.579 104.874 194.098 106.173C192.08 107.935 192.08 107.935 193.261 105.229C194.002 103.678 194.103 101.333 193.627 99.6678C193.001 98.1998 192.756 95.9022 192.871 94.6854C193.23 92.1633 192.046 85.8622 191.121 84.7886C190.747 84.3809 189.734 81.3767 188.761 78.155C187.333 73.1593 186.625 72.1263 184.281 72.0254C182.412 71.7883 182.018 71.4894 183.227 71.0402C184.328 70.5707 184.539 70.0471 183.75 69.4493C183.179 68.8921 182.635 68.7904 182.554 69.2255C182.473 69.6606 181.677 68.4985 180.678 66.6228C178.522 62.5043 171.161 56.7362 165.472 54.6585L161.354 53.2124L164.073 55.5225C165.521 56.8066 166.602 58.2473 166.5 58.7911C166.378 59.4438 166.84 59.9806 167.601 60.123C168.253 60.2451 169.633 61.2913 170.517 62.5825C171.421 63.7649 173.134 65.4364 174.317 66.3332C175.391 67.2097 176.588 69.2349 176.867 70.7507C177.289 73.3064 177.16 73.3949 175.685 71.6553C174.76 70.5816 173.835 69.508 173.57 69.1206C172.707 67.7207 167.351 64.4669 166.685 65.0178C166.298 65.2831 166.475 65.5413 167.127 65.6634C167.779 65.7855 168.425 67.1447 168.467 68.7286C168.617 70.3328 169.154 71.6717 169.806 71.7938C170.35 71.8955 172.518 73.5396 174.408 75.4694C177.637 78.6629 177.705 78.9008 175.204 78.4329C173.682 78.148 171.623 78.3257 170.651 78.7068C169.313 79.2444 170.556 79.8148 174.777 80.7171C178.039 81.3275 179.935 82.02 179.004 82.1836C178.073 82.3471 176.497 82.9528 175.505 83.4427C174.125 84.1978 174.391 84.5852 177.136 85.5493C178.924 86.2215 180.433 87.1793 180.31 87.8319C180.209 88.3758 180.787 89.4972 181.575 90.095C182.364 90.6929 182.833 91.7939 182.731 92.3378C182.609 92.9904 182.133 93.1266 181.651 92.6986C181.188 92.1617 179.972 92.0467 178.932 92.1899C177.417 92.4693 177.75 93.0945 180.095 94.9969C181.869 96.3421 183.698 98.5981 184.344 99.9574C185.35 102.397 185.221 102.486 182.455 101.63C179.71 100.666 179.689 100.775 182.864 103.058C185.664 104.933 185.977 105.667 184.509 106.293C183.171 106.83 183.089 107.266 184.095 107.904C185.801 109.011 185.258 110.711 183.301 110.345C182.431 110.182 181.771 109.496 181.873 108.952C181.995 108.299 181.533 107.762 180.989 107.661C179.902 107.457 179.787 108.674 180.108 115.377C180.197 117.307 179.932 116.92 179.313 114.214C178.701 112.073 178.387 109.538 178.53 108.777C178.693 107.906 178.38 107.172 177.727 107.05C177.184 106.949 176.762 106.194 176.925 105.324C177.088 104.454 176.856 103.285 176.265 102.836C175.674 102.388 175.463 102.912 175.586 104.06C175.709 105.209 175.131 104.088 174.253 101.559C173.396 98.9221 172.247 97.2436 171.405 97.5362C170.562 97.8289 170.474 97.6998 171.051 97.0198C172.206 95.6597 165.542 83.1547 163.966 83.7604C163.361 83.985 161.941 83.1563 160.799 82.042C158.161 79.2968 156.442 78.8625 157.686 81.2344C158.529 82.7431 158.162 82.8997 155.505 82.0647C153.697 81.5013 151.339 80.2719 150.265 79.3955C148.797 78.2201 147.037 78.0033 143.374 78.3312L138.563 78.782L142.267 80.038C145.774 81.1445 145.882 81.1648 143.11 81.5467C141.03 81.8331 141.989 82.125 146.073 82.5515C149.158 82.9036 151.727 83.6094 151.625 84.1533C151.544 84.5884 150.878 85.1393 150.294 85.2551C149.601 85.3506 150.675 86.227 152.727 87.2866C154.977 88.4956 156.064 88.6991 155.751 87.965C155.439 87.231 156.247 87.7201 157.587 88.9839C158.817 90.2274 160.829 91.5045 162.134 91.7486C163.438 91.9928 164.927 93.0594 165.525 94.072C166.457 95.7098 166.11 95.7575 163.059 94.6237L159.464 93.388L162.923 95.9493C164.806 97.3148 167.035 98.6326 167.688 98.7547C168.775 98.9581 168.714 99.2844 167.362 100.495C166.139 101.617 166.119 101.726 167.22 101.256C168.905 100.671 174.132 105.815 174.643 108.5C174.922 110.015 174.704 109.975 173.426 108.385C172.237 106.924 171.693 106.822 171.183 107.74C170.715 108.44 169.94 108.971 169.288 108.849C168.527 108.706 168.737 108.183 169.682 107.346C171.013 106.244 170.897 105.66 169.429 104.484C168.355 103.608 167.2 103.167 166.813 103.432C166.425 103.697 165.154 102.671 164.073 101.231C162.904 99.6609 160.212 97.8063 157.99 97.0527C155.788 96.1903 154.082 95.083 154.204 94.4304C154.347 93.669 153.783 93.676 152.879 94.295C151.588 95.1793 151.486 95.7232 152.649 96.7287C153.417 97.4354 154.946 98.2844 155.925 98.4675C156.903 98.6506 158.861 100.818 160.105 103.19C161.35 105.562 163.702 108.029 165.272 108.66C169.023 110.263 168.712 113.131 165.048 111.658C163.567 111.156 162.513 110.17 162.615 109.627C162.717 109.083 162.322 108.784 161.718 109.008C161.222 109.253 159.713 108.295 158.632 106.855C154.995 102.234 149.769 100.693 152.774 105.083C154.099 107.02 154.079 107.129 151.666 106.79C149.798 106.553 150.083 106.831 152.747 108.23C156.764 110.22 159.028 112.558 156.418 112.07C155.657 111.927 157.112 113.776 159.702 116.174C162.4 118.593 163.501 119.925 162.258 119.354C158.023 117.324 159.363 120.389 163.577 122.528C166.962 124.287 172.04 129.628 169.865 129.221C168.669 128.997 163.612 125.349 161.042 122.842C159.438 121.191 158.194 120.62 157.617 121.3C157.189 121.783 155.891 122.103 154.933 121.811C153.411 121.527 153.56 121.329 155.422 121.002C157.522 120.607 157.277 120.111 153.64 117.292C151.363 115.627 148.087 113.888 146.436 113.692C144.805 113.387 143.983 113.571 144.683 114.039C145.295 114.379 145.804 115.262 145.682 115.915C145.54 116.676 143.889 116.48 141.143 115.516C138.18 114.511 134.857 114.227 131.174 114.664C123.311 115.782 123.529 117.624 131.392 118.307C135.062 118.544 137.087 119.148 136.136 119.42C135.164 119.801 137.516 120.466 141.709 120.913C149.768 121.746 158.556 125.304 158.129 127.588C157.803 129.329 147.161 128.463 144.598 126.52C142.124 124.706 134.309 122.568 134.105 123.656C134.003 124.2 134.751 125.015 135.798 125.436C136.715 125.946 133.827 125.743 129.349 125.018L121.153 123.709L127.412 126.344C130.858 127.777 134.039 128.822 134.644 128.598C135.119 128.462 135.69 129.019 135.854 129.95C136.065 131.228 137.308 131.798 140.543 131.953C144.124 132.06 144.845 132.42 144.56 133.943C144.377 134.922 144.56 135.745 145.084 135.955C148.393 136.912 151.167 138.332 152.356 139.793C153.192 140.737 155.123 142.449 156.74 143.428C160.329 145.9 159.256 146.825 155.518 144.55C152.982 143.062 152.874 143.042 153.785 144.788C154.383 145.801 155.654 146.827 156.742 147.03C157.829 147.234 159.603 148.579 160.772 150.149C162.886 152.683 162.866 152.792 160.786 151.277C157.524 148.865 155.852 148.778 157.117 151.041C157.715 152.054 157.681 152.835 157.137 152.734C156.159 152.55 155.452 151.517 150.965 144.824C150.013 143.295 148.307 142.187 147.267 142.33C146.139 142.345 145.507 142.114 145.806 141.719C146.214 141.345 145.072 140.231 143.454 139.253C140.83 137.636 140.395 137.555 140.674 139.07C141.09 141.062 141.09 141.062 136.672 138.209C132.668 135.546 128.706 134.467 128.421 135.99C128.319 136.533 130.46 137.722 133.294 138.815L138.242 140.642L134.294 140.691L130.366 140.632L135.198 141.874L140.05 143.007L135.436 143.607L130.802 144.316L137.013 144.803C140.663 145.148 143.993 145.996 145.067 146.872C146.712 148.306 146.583 148.394 143.953 148.015C142.322 147.71 140.718 147.86 140.29 148.343C139.862 148.826 138.516 148.799 137.381 148.249C134.391 146.789 135.282 150.445 138.593 153.204L141.135 155.256L138.396 154.856C136.527 154.619 137.384 155.454 141.095 157.275C143.956 158.823 146.362 160.399 146.281 160.834C146.179 161.378 147.028 161.65 148.157 161.636C149.196 161.493 150.943 162.382 151.976 163.476C153.737 165.494 153.628 165.474 150.162 164.15C146.805 162.846 146.567 162.914 147.675 164.811C148.253 165.932 149.239 166.679 149.823 166.563C150.924 166.094 158.006 170.346 157.823 171.325C157.762 171.651 156.912 171.38 155.995 170.87C154.377 169.892 154.357 170.001 155.356 171.877C156.023 173.127 156.145 174.276 155.758 174.541C154.596 175.337 152.006 171.137 152.882 170.063C153.31 169.58 152.78 168.805 151.536 168.235C149.878 167.474 149.511 167.631 149.688 169.69C149.933 171.988 149.736 171.838 147.724 168.76C146.527 166.735 145.303 164.254 144.834 163.153C144.426 161.726 142.897 160.877 140.484 160.538C138.527 160.172 137.786 159.92 139.043 159.818C140.647 159.668 140.205 159.022 136.922 156.719C131.953 153.2 130.438 153.479 133.545 157.326L135.747 159.989L132.288 157.428C128.542 154.588 120.992 152.838 119.45 154.463C119.022 154.946 117.357 155.422 115.774 155.464C114.211 155.397 117.086 156.272 122.156 157.446C130.596 159.251 131.011 159.441 127.328 159.877C123.298 160.362 123.298 160.362 130.923 162.914C135.151 164.381 139.059 166.351 139.698 167.146C140.208 168.029 141.39 168.926 142.152 169.068C142.913 169.211 144.381 170.386 145.394 171.589C146.652 173.288 146.747 173.981 145.646 174.451C144.675 174.832 144.722 175.178 146.136 175.443C147.114 175.626 148.106 175.136 148.358 174.395C148.48 173.742 148.901 174.497 149.16 176.121C149.466 178.093 151.315 180.24 154.49 182.522C160.573 186.7 163.49 190.961 157.78 187.191C155.768 185.914 154.11 185.153 154.028 185.588C153.927 186.132 153.532 185.833 153.199 185.208C152.24 183.115 145.062 176.368 143.54 176.083C142.779 175.941 142.534 175.444 142.962 174.962C143.39 174.479 142.316 173.602 140.658 172.842C138.87 172.17 135.418 170.173 132.835 168.338C123.577 161.878 116.461 158.407 117.447 160.956C117.672 161.561 120.098 163.028 122.783 164.318C127.214 166.499 127.5 166.777 124.877 166.962C122.254 167.146 122.539 167.425 126.971 169.605C129.655 170.896 131.735 172.411 131.633 172.954C131.511 173.607 130.295 173.492 128.636 172.731C122.853 169.96 117.273 167.903 114.119 167.313C110.728 166.791 111.014 167.07 117.328 170.615C119.666 171.954 119.666 171.954 115.902 172.825C113.802 173.221 112.205 173.935 112.491 174.214C112.756 174.601 114.815 174.423 117.152 173.96C119.49 173.497 122.786 173.325 124.396 173.739C127.332 174.289 127.312 174.397 124.866 174.84C123.35 175.12 122.12 175.678 122.039 176.113C121.978 176.439 123.045 176.751 124.54 176.581C125.906 176.499 128.842 177.048 131.152 177.931L135.162 179.356L131.418 180.119C128.367 180.787 126.716 180.59 123.637 179.001C121.496 177.812 120.028 176.637 120.347 176.134C120.755 175.76 119.905 175.488 118.648 175.591C116.242 175.816 116.222 175.925 118.784 177.868C122.904 181.116 121.578 180.98 115.917 177.557C109.623 173.902 110.058 173.984 109.793 175.398C109.691 175.941 110.133 176.587 110.895 176.729C113.722 177.258 120.988 182.333 119.54 182.851C118.806 183.164 120.689 184.529 123.7 185.88C129.416 188.414 135.411 192.462 132.781 192.083C132.02 191.94 131.503 192.294 131.837 192.919C132.041 193.633 130.756 193.28 128.921 192.261C121.146 188.104 115.321 185.551 114.805 185.905C114.418 186.17 115.621 186.958 117.517 187.651C120.854 189.063 122.703 191.21 120.161 190.96C116.988 190.479 123.057 193.528 127.08 194.281C130.104 194.96 130.913 195.449 129.704 195.898C128.365 196.435 128.522 196.802 130.506 197.624C132.402 198.317 132.144 198.493 129.297 198.073C123.384 197.192 125.79 198.768 133.123 200.478C140.565 202.208 143.127 204.151 136.583 203.039C134.3 202.612 131.282 202.498 129.984 202.818C128.578 203.117 130.08 203.511 133.838 203.877C138.941 204.269 140.097 204.71 140.356 206.334C140.655 207.741 139.948 208.51 138.087 208.837C135.987 209.232 136.381 209.531 140.364 210.502C143.062 211.119 144.197 211.669 142.939 211.772C141.118 211.881 141.601 212.309 144.768 214.028L148.853 216.255L144.809 215.611C142.614 215.313 138.774 213.582 136.171 211.856C130.176 207.807 129.177 207.733 133.324 211.436C138.435 215.995 136.064 215.439 129.362 210.357C126.011 207.816 122.884 205.88 122.497 206.145C122.11 206.41 124.128 208.252 126.908 210.235C129.797 212.24 131.51 213.911 130.926 214.027C130.233 214.122 128.289 213.083 126.623 211.758C123.775 209.537 114.817 204.483 113.404 204.219C111.861 204.043 118.033 208.35 119.861 208.804C121.037 209.137 121.302 209.524 120.48 209.708C119.787 209.804 119.209 210.484 119.542 211.109C119.767 211.714 118.7 211.401 117.279 210.573C115.77 209.615 112.569 208.678 110.068 208.21L105.461 207.573L109.124 209.047C111.414 210.038 111.897 210.466 110.354 210.29C109.05 210.046 107.12 210.135 106.06 210.387C104.436 210.646 104.592 211.013 106.889 212.569C109.799 214.464 109.799 214.464 104.131 214.079C101.005 213.945 97.4306 214.402 96.0717 215.048C93.979 216.008 94.5227 216.109 99.6396 215.828C105.123 215.391 105.667 215.493 105.865 217.444C106.056 218.83 106.953 219.448 108.754 219.448C110.228 219.386 111.689 219.997 111.893 220.711C112.186 221.553 111.819 221.71 111.031 221.112C110.222 220.623 109.094 220.637 108.666 221.12C108.238 221.603 110.358 222.9 113.43 223.925C117.766 225.412 118.466 225.881 116.604 226.208C113.316 226.944 115.511 227.242 121.28 227.083C124.922 226.864 126.424 227.257 127.329 228.44C128.301 229.86 128.002 230.254 125.406 230.895C122.444 231.691 122.423 231.8 126.263 231.73C131.319 231.776 137.455 233.262 138.516 234.811C139.135 235.715 138.747 235.98 137.443 235.736C136.464 235.553 135.839 235.886 136.043 236.6C136.267 237.205 135.513 237.627 134.317 237.403C133.121 237.179 131.918 236.391 131.694 235.786C131.02 233.971 128.893 233.911 129.22 235.774C129.519 237.181 128.65 237.018 123.674 234.736C116.497 231.592 114.017 231.015 113.752 232.429C113.651 232.973 114.419 233.68 115.615 233.903C116.702 234.107 119.169 235.357 120.943 236.702C123.044 238.108 123.397 238.624 121.759 237.755C115.955 235.093 111.626 234.17 108.405 235.144L105.076 236.097L108.304 237.489C110.506 238.351 111.254 239.167 110.567 239.827C109.841 240.704 110.908 241.016 114.903 241.313C119.266 241.454 121.271 242.167 125.322 245.177C130.576 248.974 135.974 255.613 131.712 253.127C130.707 252.489 129.633 251.612 129.388 251.116C128.014 248.833 123.338 244.355 121.815 244.07C120.728 243.867 121.306 244.988 123.236 246.7C124.841 248.351 126.248 249.853 126.187 250.179C126.065 250.832 121.565 248.414 121.096 247.313C120.294 245.587 116.379 243.053 113.857 242.694C111.791 242.307 112.145 242.824 115.319 245.106L119.282 247.987L115.578 246.731C113.573 246.018 110.827 245.054 109.584 244.483C108.211 244.001 107.083 244.015 106.961 244.668C106.859 245.212 107.844 245.959 109.238 246.333C111.521 246.76 111.501 246.869 109.272 247.352C107.519 247.7 108.219 248.168 112.33 249.05C116.857 250.122 117.162 250.292 114.322 250.436L110.917 250.587L114.472 252.04C116.348 252.842 120.024 253.642 122.586 253.784C125.019 254.014 126.215 254.238 125.176 254.381C121.037 254.845 122.968 256.557 128.051 257.058C131.938 257.335 132.55 257.675 130.362 257.941C127.915 258.384 128.33 258.574 132.856 259.646L138.252 260.881L133.699 261.155C131.205 261.251 127.903 260.858 126.421 260.356C124.504 259.772 123.098 260.072 121.984 261.214C120.849 262.465 118.899 262.663 115.182 262.08C110.139 261.362 110.139 261.362 113.694 262.815C117.772 264.479 116.039 264.718 109.793 263.211C106.443 262.472 105.641 262.547 105.94 263.954C106.083 264.994 105.683 265.932 104.861 266.116C104.059 266.191 105.194 266.741 107.26 267.128C110.175 267.786 110.658 268.214 109.19 268.84C107.852 269.378 108.355 269.697 111.263 269.791C113.39 269.851 115.381 269.435 115.7 268.932C116.4 267.6 119.485 267.952 119.241 269.257C119.159 269.692 118.304 270.658 117.509 271.297C116.605 271.916 118.644 271.847 122.15 271.152C127.865 270.083 131.582 270.666 127.825 272.102C125.881 272.864 128.96 274.453 132.236 274.39C134.274 274.322 134.295 274.213 132.079 272.222C130.631 270.938 130.474 270.571 131.786 271.379C132.901 272.038 136.89 273.573 140.744 274.631C146.187 276.213 146.69 276.532 143.279 276.119C140.866 275.78 137.829 275.775 136.531 276.095C134.886 276.463 135.498 276.802 138.624 276.937C141.533 277.031 143.735 277.893 144.856 279.116C147.385 281.841 145.259 283.582 141.269 282.048L137.891 280.853L140.848 283.095L143.805 285.337L140.665 284.074C138.986 283.422 134.936 282.213 131.803 281.515C126.407 280.28 126.189 280.239 128.317 282.101C130.444 283.962 130.336 283.942 126.87 282.618C120.352 280.16 118.83 279.875 122.323 281.655C124.049 282.653 125.518 283.829 125.416 284.373C125.335 284.808 126.34 285.446 127.734 285.819C129.038 286.064 129.412 286.471 128.59 286.655C127.768 286.839 125.26 285.807 123.051 284.38C118.633 281.527 114.454 280.407 115.127 282.222C115.351 282.827 114.815 283.29 113.836 283.106C112.857 282.923 112.321 283.386 112.545 283.991C112.749 284.704 112.063 285.364 110.915 285.487C106.43 285.999 100.009 287.837 99.866 288.598C99.6625 289.686 99.7712 289.706 104.276 289.086C107.287 288.636 108.157 288.799 108.694 290.138C109.075 291.109 109.489 291.3 109.611 290.647C109.754 289.886 112.519 288.939 115.768 288.421C120.986 287.597 121.394 287.223 119.987 285.721C119.042 284.756 118.838 284.042 119.381 284.144C120.034 284.266 120.911 284.993 121.441 285.768C122.148 286.801 120.626 288.317 115.979 291.501C109.783 295.745 108.703 297.907 112.4 298.599C113.596 298.823 112.93 299.374 110.79 299.987C108.996 300.552 106.679 300.906 105.918 300.764C104.504 300.499 101.468 304.097 101 306.598C100.898 307.142 103.82 306.563 107.516 305.453C114.454 303.262 117.797 303.437 114.292 305.933C113.15 306.62 112.403 307.606 112.777 308.014C113.042 308.401 114.51 307.775 116.079 306.605C118.036 305.17 119.68 304.802 121.141 305.414C122.276 305.964 123.989 305.834 125.001 305.235C128.337 303.045 132.828 301.296 134.568 301.621C135.438 301.784 134.385 302.6 132.313 303.451C125.056 306.146 128.141 306.498 136.94 303.979C138.972 303.346 142.526 302.998 145 303.01L149.471 303.171L145.449 304.22C140.733 305.364 140.815 306.73 145.578 305.933C147.331 305.586 149.003 305.673 149.289 305.952C149.554 306.339 148.215 306.877 146.462 307.224C144.709 307.572 143.479 308.13 143.744 308.517C144.009 308.904 145.375 308.822 146.911 308.434C151.708 306.855 156.2 306.907 158.735 308.395C160.135 309.332 160.842 310.365 160.394 310.957C159.946 311.549 160.625 312.126 162.039 312.391C168.978 313.801 169.358 314.773 168.425 328.784C168.31 330.001 167.938 336.799 167.526 343.814C165.655 380.278 156.3 432.679 146.516 460.908C141.696 474.642 135.483 489.803 128.508 504.823C126.858 508.229 123.476 515.477 121.004 520.869C118.532 526.26 115.259 533.529 113.718 536.955C112.067 540.362 110.492 544.57 110.166 546.311C109.841 548.051 109.291 549.187 109.046 548.69C108.672 548.283 110.327 538.235 112.654 526.399C116.406 506.949 120.692 478.029 122.412 459.212C122.819 455.235 125.905 436.336 129.378 417.172C137.75 371.229 138.702 374.559 110.657 354.226C91.612 340.53 85.0937 336.271 81.3967 335.579C76.8299 334.724 70.2459 337.433 62.3581 343.5C53.5464 350.295 38.1652 362.728 33.4232 367.019C31.6433 368.713 28.9598 371.025 27.4108 372.086C25.9704 373.168 22.3833 376.099 19.462 378.48C16.5203 380.969 13.1913 383.723 12.1383 384.54C11.0649 385.465 8.89769 387.423 7.39632 388.831C5.89494 390.239 3.5103 392.157 2.21943 393.041C0.19473 394.238 0.00458351 394.653 1.3094 394.897C2.83169 395.182 27.6642 378.551 62.076 354.03C76.7443 343.602 76.9821 343.534 81.0123 344.851C86.0007 346.46 124.505 372.241 126.518 375.319C128.598 378.636 129.368 384.747 128.868 393.434C128.638 397.669 122.473 436.032 115.059 478.664C107.773 521.208 100.929 560.794 99.9793 566.471C98.9483 572.582 95.3372 585.867 91.1551 598.594C79.0705 635.511 79.3147 634.206 84.4247 633.361C86.6331 632.986 87.2036 631.741 89.5453 622.835C91.0182 617.369 93.5506 609.85 95.1532 606.097C103.757 585.978 111.498 566.262 116.603 551.005C121.084 537.883 122.286 535.069 129.227 522.633C131.835 517.717 135.822 510.244 138.07 506.049C144.658 493.096 155.567 480.502 165.942 473.775C170.311 470.877 182.29 467.602 187.93 467.531C191.403 467.618 192.212 468.107 194.666 471.831C198.603 477.859 207.865 498.731 208.056 501.919C208.247 503.306 208.893 504.665 209.762 504.828C211.72 505.194 212.005 503.671 210.671 499.369C210.039 497.337 209.868 495.841 210.086 495.882C211.173 496.085 204.385 475.226 201.78 469.898C200.291 467.03 197.688 463.503 195.805 462.137C188.185 456.546 170.763 460.041 158.146 469.726L154.6 472.44L157.133 466.722C158.505 463.602 163.36 452.689 167.876 442.388C184.819 403.566 192.018 390.953 212.994 362.454C230.492 338.709 242.032 322.742 242.154 322.09C242.216 321.764 243.941 319.159 245.924 316.378C250.937 309.435 257.899 296.89 262.924 285.672C265.246 280.477 267.583 276.411 268.235 276.533C268.888 276.655 270.465 277.851 271.675 279.203C277.589 285.489 299.075 305.383 300.163 305.587C300.489 305.648 301.611 306.871 302.603 308.182C304.235 310.289 310.686 316.112 325.354 328.539C327.196 330.122 331.934 334.273 335.775 337.806C339.615 341.339 343.163 344.03 343.571 343.656C344.067 343.411 344.169 342.867 343.971 342.717C342.87 341.385 331.878 329.759 329.132 326.994C327.439 325.214 325.393 322.917 324.686 321.884C323.979 320.851 323.014 319.995 322.579 319.913C322.144 319.832 320.696 318.548 319.506 317.087C318.317 315.626 316.821 313.995 316.379 313.349C315.829 312.684 313.082 309.918 310.227 307.132C307.372 304.346 303.287 300.317 301.241 298.02C299.174 295.832 294.559 291.028 290.847 287.407C287.245 283.806 284.036 280.503 283.771 280.116C283.506 279.728 280.868 276.983 277.925 274.068C267.695 264.386 262.136 265.823 256.235 279.917C254.361 284.52 251.74 290.109 250.531 292.36C249.213 294.59 246.585 299.615 244.486 303.613C241.009 310.167 228.749 329.376 225.393 333.477C224.537 334.442 223.858 335.666 223.736 336.319C223.553 337.298 217.182 346.688 212.848 352.407C208.833 357.623 192.58 385.541 184.614 401.051C181.476 406.993 176.77 415.907 174.121 421.041C171.384 426.045 168.695 431.396 167.975 432.838C167.364 434.299 166.195 436.332 165.428 437.427C164.66 438.522 161.753 443.832 158.847 449.143C155.94 454.453 154.194 457.166 154.907 455.16C157.345 448.749 166.926 402.357 169.36 385.137C170.723 376.048 172.024 363.682 172.491 357.577C172.829 351.561 173.377 345.022 173.485 343.241C173.966 338.264 174.337 329.665 174.457 321.807C174.611 314.968 174.781 314.662 180.351 307.148C183.401 302.878 186.567 299.192 187.171 298.968C187.797 298.634 188.068 297.784 187.776 296.942C187.483 296.099 187.646 295.229 188.271 294.895C189.739 294.269 193.556 288.904 194.33 286.572C194.642 285.505 194.132 284.621 193.045 284.418C191.394 284.221 188.357 287.819 182.095 297.23C180.797 299.351 179.473 301.017 179.255 300.976C178.603 300.854 181.427 292.376 184.259 286.264C185.631 283.143 186.636 280.179 186.391 279.683C186.03 278.602 189.941 268.526 191.945 265.636C195.586 260.013 195.368 258.171 191.237 261C188.784 262.68 182.767 272.587 181.925 276.483C181.511 278.094 180.567 280.732 179.786 282.5C179.005 284.268 179.358 281.181 180.695 275.239C183.117 264.097 184.421 260.738 190.982 249.131C198.351 236.212 197.039 233.603 188.826 245.013C185.756 249.392 183.976 251.085 183.358 250.182C182.297 248.632 187.689 237.257 189.32 237.562C189.864 237.664 190.203 237.052 190.04 236.121C189.877 235.19 191.215 232.851 193.185 230.743C197.424 226.132 199.271 222.875 198 221.849C196.946 220.864 188.957 227.475 188.529 229.759C188.387 230.52 187.3 232.118 186.186 233.261C185.072 234.403 183.564 237.048 182.851 239.054C182.227 241.189 181.256 243.371 180.807 243.963C180.271 244.425 178.98 247.111 178.016 249.858C176.482 253.849 176.536 252.958 178.287 245.405C179.481 240.225 180.941 235.432 181.518 234.752C183.21 232.929 184.743 225.335 183.404 225.873C182.779 226.206 183.35 224.962 184.695 223.187C186.468 220.929 186.929 219.665 186.141 219.067C185.373 218.36 185.787 216.749 187.634 213.492C188.993 211.044 190.554 207.509 191.206 205.83C191.77 204.021 192.361 202.668 192.469 202.688C192.578 202.709 193.413 200.051 194.241 196.828L195.795 190.927L192.786 193.178C191.087 194.437 188.676 197.701 187.345 200.604C182.842 210.231 182.734 210.211 182.855 205.956C182.867 203.481 183.832 200.734 185.346 198.654C186.922 196.247 187.364 195.091 186.555 194.602C185.746 194.113 186.948 191.298 190.052 186.137C192.646 181.894 194.955 177.372 195.179 176.176C195.403 174.979 196.592 172.838 197.679 171.24C198.854 169.771 199.424 168.527 198.772 168.405C198.228 168.303 197.976 167.242 198.2 166.046C198.424 164.849 198.172 163.789 197.629 163.687C196.433 163.464 194.836 165.979 194.307 168.808C194.083 170.004 193.526 170.575 192.935 170.127C192.364 169.57 191.746 170.467 191.44 172.099C190.708 176.015 185.634 185.085 184.33 184.841C183.786 184.739 183.813 183.393 184.464 181.714C185.205 180.164 186.087 177.852 186.658 176.608C187.14 175.235 189.415 171.495 191.718 168.211C194.021 164.926 195.61 161.846 195.345 161.459C195.079 161.071 196.302 158.148 198.129 155C199.827 151.94 201.307 148.839 201.321 148.167C201.443 147.514 202.264 145.529 203.351 143.931C206.184 139.62 208.641 131.298 207.39 130.163C206.425 129.307 203.98 133.353 198.635 145.075C197.454 147.781 195.878 150.188 195.382 150.433C193.935 150.95 194.43 148.904 196.074 146.734C197.677 144.783 205.69 126.017 206.199 123.298C206.382 122.319 206.11 121.368 205.458 121.246C204.044 120.981 200.424 126.496 197.578 133.281C196.207 136.402 194.251 139.638 193.177 140.563C191.995 141.468 191.723 142.318 192.294 142.875C193.348 143.86 191.624 150.067 189.817 151.305C188.913 151.924 188.831 150.558 189.53 147.424C190.127 144.834 190.5 141.639 190.18 140.34C189.833 138.587 189.962 138.498 190.52 139.728C191.254 141.217 191.621 141.06 192.592 138.878C193.332 137.328 193.678 135.478 193.345 134.853C193.141 134.139 194.18 132.195 195.811 130.699C197.462 129.094 198.718 127.19 198.534 126.367C198.248 124.287 208.974 110.871 212.854 108.782C213.608 108.36 213.323 108.082 212.154 108.313C209.402 108.586 209.836 106.866 213.498 102.936C215.21 101.004 215.93 99.5629 215.168 99.4205C213.864 99.1763 218.218 93.3487 220.439 92.3009C221.302 91.8995 221.255 91.5528 220.494 91.4104C219.95 91.3086 218.632 91.7375 217.748 92.2477C216.845 92.8667 217.735 91.1193 219.806 88.4672C224.181 82.5309 228.879 67.6485 226.758 66.3511C225.643 65.6922 225.725 65.2571 227.226 63.8493C231.126 59.8505 234.787 54.1184 233.991 52.9563C233.549 52.3107 234.072 50.7198 235.288 49.0334C236.742 47.279 237.095 45.994 236.524 45.4369C235.953 44.8797 235.979 43.5337 236.659 42.3098C237.609 40.2361 237.371 40.3042 234.253 42.5352C232.317 43.8616 230.951 45.7452 231.115 46.6764C231.278 47.6077 230.823 49.4365 230.035 50.64C228.738 52.7615 228.738 52.7615 228.602 50.4843C228.52 49.118 229.884 45.433 231.711 42.2848C233.43 39.1163 234.971 35.6896 235.066 34.5815C235.032 33.5618 236.152 31.1821 237.518 29.2986C238.794 27.2859 240.655 23.3559 241.64 20.5004C242.645 17.5362 244.206 14.0007 245.164 12.4911C246.95 9.56051 247.159 3.63277 245.474 4.21812C243.769 4.91223 238.96 14.37 237.997 18.9182C237.115 23.0312 237.115 23.0312 236.855 19.6052L236.596 16.1793L235.775 19.966C235.368 22.1414 234.417 24.2152 233.772 24.6573C233.106 25.2082 232.006 27.4792 231.361 29.7227C229.202 37.6498 227.605 34.7615 228.655 24.9383C229.156 19.8533 229.174 12.5389 228.629 8.83437C227.472 1.18739 226.18 -1.53115 225.508 2.05836ZM202.628 46.7501C204.762 49.1759 206.626 54.2531 207.049 58.6102C207.396 62.1653 207.267 62.2538 206.2 60.1401C205.554 58.7808 205.077 57.1156 205.2 56.463C205.322 55.8103 204.567 54.4307 203.534 53.3367C202.5 52.2427 201.766 50.7543 201.929 49.8842C202.071 49.1227 201.718 48.6063 201.113 48.8309C200.508 49.0555 199.978 48.2807 199.876 47.0232C199.691 44.3993 200.493 44.3242 202.628 46.7501ZM213.767 50.9734C213.278 51.7826 213.013 51.3952 213.237 50.1987C213.352 48.9819 213.8 48.3903 214.045 48.8864C214.31 49.2737 214.236 50.273 213.767 50.9734ZM211.235 60.2943C210.523 64.1013 209.332 59.0375 209.725 53.9322L210.09 48.3715L210.805 53.5715C211.166 56.4536 211.378 59.5328 211.235 60.2943ZM225.383 58.6634C224.473 60.5196 223.169 62.0769 222.347 62.2607C220.96 62.4517 221.232 61.6019 224.804 55.7406C227.08 52.0009 227.475 54.1012 225.383 58.6634ZM187.659 52.1677C187.272 52.4329 186.273 52.3586 185.573 51.8899C184.764 51.4008 185.151 51.1355 186.347 51.3593C187.564 51.4743 188.155 51.9227 187.659 52.1677ZM215.364 71.3116C214.059 72.8689 212.796 74.2086 212.47 74.1476C212.252 74.1069 212.972 72.6654 214.276 71.1082C215.601 69.4421 216.844 68.2112 217.17 68.2722C217.388 68.3129 216.688 69.6456 215.364 71.3116ZM181.781 73.3589C181.72 73.6852 181.183 74.1477 180.469 74.3519C179.865 74.5765 179.362 74.2572 179.463 73.7134C179.586 73.0607 180.231 72.6186 180.775 72.7203C181.427 72.8424 181.821 73.1413 181.781 73.3589ZM217.765 81.3305C217.256 82.2484 216.611 82.6905 216.454 82.3235C216.189 81.9362 216.42 81.3039 216.977 80.7326C218.281 79.1754 218.873 79.6238 217.765 81.3305ZM183.548 75.9412C183.508 76.1588 182.645 76.5602 181.605 76.7034C180.674 76.867 180.259 76.6768 180.708 76.0852C181.564 75.1196 183.711 75.071 183.548 75.9412ZM184.481 82.9833C184.38 83.5272 183.877 83.2079 183.496 82.236C183.115 81.2641 182.816 79.8571 182.917 79.3132C183.039 78.6606 183.522 79.0886 183.903 80.0605C184.284 81.0324 184.604 82.3307 184.481 82.9833ZM186.826 84.8857C187.051 85.4906 186.535 85.8443 185.665 85.6815C184.795 85.5187 184.441 85.0023 184.869 84.5194C185.277 84.1454 185.793 83.7917 186.011 83.8324C186.228 83.8731 186.582 84.3895 186.826 84.8857ZM212.848 90.7679C212.319 91.7946 211.239 93.9568 210.567 95.7449C209.915 97.4242 208.468 99.7429 207.374 100.777C206.389 101.831 205.391 103.558 205.167 104.754C204.882 106.277 204.495 106.542 203.876 105.639C203.169 104.606 203.522 103.321 204.799 101.308C205.886 99.71 206.667 97.9423 206.66 97.3781C206.53 95.6651 211.781 88.6543 212.977 88.8781C213.521 88.9798 213.467 89.8704 212.848 90.7679ZM198.428 89.6458C199.278 91.7188 197.892 91.9097 196.716 89.7757C196.029 88.634 196.151 87.9814 196.803 88.1034C197.456 88.2255 198.224 88.9321 198.428 89.6458ZM200.714 99.0801C199.906 100.392 199.24 100.943 199.383 100.182C199.579 98.53 201.386 95.4906 201.828 96.1362C202.113 96.4148 201.522 97.7678 200.714 99.0801ZM194.148 115.527C193.122 116.798 193.007 116.214 193.637 112.842C194.35 109.035 194.499 108.838 195.071 111.196C195.418 112.95 195.004 114.561 194.148 115.527ZM185.803 114.416C187.387 117.977 187.245 118.738 185.002 118.094C182.739 117.557 181.719 115.791 182.208 113.18C182.696 110.569 184.375 111.221 185.803 114.416ZM190.344 122.02C189.855 122.829 189.59 122.442 189.814 121.246C189.929 120.029 190.378 119.437 190.622 119.933C190.888 120.321 190.813 121.32 190.344 122.02ZM185.153 121.499C184.99 122.369 185.323 122.995 185.948 122.661C187.633 122.076 188.885 126.813 187.656 129.173C187.126 130.199 186.794 133.177 187.128 135.604C187.496 139.05 187.211 140.573 185.947 141.912C184.813 143.164 184.466 143.212 184.778 142.144C185.159 141.315 185.423 138.099 185.449 134.952C185.611 130.479 185.298 129.745 184.211 131.343C183.124 132.941 183.145 132.832 184.027 130.52C184.638 129.058 184.706 127.495 184.203 127.176C182.891 126.367 182.869 119.27 184.282 119.535C184.935 119.657 185.336 120.52 185.153 121.499ZM173.75 122.293C175.354 123.944 176.483 125.731 176.381 126.275C176.279 126.819 176.912 128.851 177.891 130.836C178.761 132.8 179.041 134.316 178.388 134.194C177.736 134.071 176.94 132.909 176.512 131.591C176.083 130.272 175.356 129.348 174.771 129.464C174.275 129.709 174.112 128.778 174.356 127.472C174.75 125.97 173.907 124.461 172.242 123.136C170.644 122.049 169.543 120.717 169.665 120.065C169.95 118.542 170.759 119.031 173.75 122.293ZM172.093 125.135C171.991 125.679 171.672 126.182 171.454 126.141C171.128 126.08 170.686 125.435 170.462 124.83C170.258 124.116 170.556 123.722 171.1 123.823C171.753 123.945 172.215 124.482 172.093 125.135ZM170.953 133.028C172.361 134.529 173.204 136.038 172.776 136.521C172.348 137.004 172.443 137.697 173.014 138.254C173.497 138.682 173.878 139.654 173.735 140.416C173.613 141.068 172.933 140.491 172.179 139.111C171.267 137.364 170.635 137.134 170.017 138.031C169.06 139.541 166.53 135.014 165.958 130.854C165.617 127.864 165.923 128.033 170.953 133.028ZM146.883 130.55C147.107 131.155 146.326 131.121 145.191 130.571C144.056 130.021 142.982 129.145 142.737 128.649C142.513 128.044 143.294 128.077 144.429 128.627C145.564 129.178 146.638 130.054 146.883 130.55ZM159.367 132.999C162.365 135.023 164.411 137.32 164.581 138.815C164.792 140.093 165.771 142.078 166.696 143.151C167.749 144.137 168.137 145.673 167.648 146.482C167.159 147.291 167.486 149.153 168.547 150.703C170.097 153.244 172.389 159.64 172.145 160.945C172.083 161.272 171.227 160.436 170.234 159.125C169.242 157.813 168.548 156.107 168.711 155.237C168.853 154.475 168.541 153.741 167.997 153.64C167.453 153.538 166.767 152.396 166.685 151.03C166.494 149.643 165.746 148.828 164.707 148.971C163.776 149.135 162.722 148.149 162.314 146.722C161.749 144.928 161.81 144.601 162.599 145.199C163.17 145.756 163.795 145.423 163.978 144.444C164.222 143.139 163.631 142.69 161.789 142.909C159.73 143.086 159.533 142.937 161.001 142.311C162.618 141.488 162.659 141.27 161.408 140.135C160.64 139.429 159.593 139.008 159.118 139.144C158.622 139.389 158.248 138.981 158.349 138.437C158.472 137.785 158.03 137.139 157.377 137.017C156.725 136.895 156.256 137.595 156.528 138.547C156.807 140.063 156.481 140.002 154.483 138.052C153.144 136.788 152.192 135.259 152.293 134.715C152.436 133.953 152.871 134.035 153.707 134.979C154.258 135.645 156.045 136.317 157.588 136.493C159.13 136.67 161.244 137.403 162.318 138.279C163.895 139.475 164.133 139.407 163.269 138.007C162.651 137.103 160.707 136.064 158.77 135.589C156.942 135.134 155.195 134.244 154.903 133.402C154.698 132.688 153.251 131.404 151.959 130.487L149.444 128.89L151.945 129.358C153.379 129.514 156.675 131.144 159.367 132.999ZM181.137 144.165C182.088 145.694 182.198 147.515 181.587 148.977C181.016 150.222 180.983 152.805 181.527 154.708C182.228 156.978 182.14 158.65 181.284 159.616C180.299 160.67 180.082 160.629 180.387 158.998C180.59 157.91 180.257 157.285 179.544 157.489C178.81 157.802 178.68 156.089 179.23 153.152C179.881 149.671 179.643 147.938 178.528 147.279C177.611 146.77 177.25 145.689 177.739 144.88C178.228 144.071 178.078 142.467 177.541 141.128C176.874 139.877 176.419 138.103 176.581 137.233C176.765 136.254 177.444 136.831 178.226 138.667C179.029 140.393 180.253 142.873 181.137 144.165ZM176.273 150.91C176.151 151.563 175.315 150.618 174.404 148.872C173.493 147.125 172.819 145.31 172.921 144.766C173.254 143.59 176.517 149.605 176.273 150.91ZM150.831 151.553C152.251 152.382 153.026 153.653 152.598 154.136C152.15 154.727 153.102 156.257 154.747 157.69C160.994 162.799 161.198 163.513 156.243 161.122C153.538 159.941 150.914 158.324 150.167 157.509C149.439 156.584 147.951 155.518 146.836 154.859C145.701 154.309 143.771 152.597 142.472 151.115L140.161 148.431L144.184 149.184C146.359 149.591 149.431 150.616 150.831 151.553ZM189.685 163.439C189.562 164.092 188.448 165.235 187.287 166.03C185.221 167.445 185.221 167.445 186.22 165.718C186.858 164.712 187.449 163.359 187.551 162.815C187.652 162.271 188.277 161.938 188.821 162.039C189.474 162.161 189.807 162.787 189.685 163.439ZM160.532 165.865C160.974 166.511 160.458 166.865 159.044 166.6C157.848 166.376 156.251 165.289 155.673 164.168C154.674 162.292 154.803 162.204 157.052 163.413C158.493 164.133 159.982 165.199 160.532 165.865ZM184.781 172.204C183.069 174.135 182.974 173.442 184.481 170.797C185.1 169.899 185.745 169.457 185.901 169.824C186.187 170.103 185.637 171.238 184.781 172.204ZM164.401 171.655C164.578 171.914 163.558 171.948 161.927 171.643C160.405 171.358 158.876 170.509 158.651 169.904C158.203 168.694 163.3 170.323 164.401 171.655ZM182.303 178.833C182.201 179.377 181.664 179.839 181.012 179.717C180.468 179.615 179.741 180.493 179.538 181.58C179.314 182.777 178.635 184.001 177.921 184.205C176.345 184.811 176.515 184.505 178.722 180.527C180.399 177.576 182.75 176.44 182.303 178.833ZM158.499 182.147C157.833 182.698 155.542 178.103 155.806 176.689C155.82 176.016 156.656 176.961 157.567 178.708C158.369 180.434 158.866 181.99 158.499 182.147ZM166.029 185.808C166.757 186.732 166.9 187.772 166.513 188.037C165.738 188.568 159.538 180.202 159.782 178.897C159.925 178.136 162.916 181.397 166.029 185.808ZM170.208 183.325C170.636 184.643 170.779 185.683 170.671 185.663C170.453 185.622 169.658 184.46 168.794 183.06C168.04 181.68 167.788 180.62 168.44 180.742C168.984 180.844 169.779 182.006 170.208 183.325ZM138.695 177.316C138.593 177.859 137.574 177.894 136.439 177.344C135.304 176.794 134.407 176.175 134.448 175.958C134.488 175.74 135.508 175.706 136.704 175.93C137.9 176.153 138.797 176.772 138.695 177.316ZM183.733 189.233C183.509 190.429 182.891 191.327 182.347 191.225C181.695 191.103 181.552 190.063 181.884 188.887C182.217 187.711 182.835 186.813 183.27 186.894C183.705 186.976 183.957 188.036 183.733 189.233ZM146.023 183.865C147.607 185.625 147.478 185.714 144.528 184.036C141.055 182.148 140.348 181.115 142.74 181.562C143.501 181.705 144.99 182.771 146.023 183.865ZM174.729 189.237C174.566 190.107 174.206 190.828 173.989 190.787C173.771 190.746 173.479 189.903 173.207 188.952C173.043 188.021 173.403 187.3 173.947 187.402C174.599 187.524 174.892 188.366 174.729 189.237ZM142.986 185.661C143.468 186.089 143.482 187.218 142.993 188.027C142.504 188.836 142.675 190.332 143.382 191.364C144.068 192.506 144.789 192.866 144.911 192.214C145.033 191.561 147.786 193.089 151.028 195.61C157.512 200.651 159.389 203.254 154.937 201.182C152.776 200.102 152.3 200.238 152.729 201.557C153.354 203.025 153.137 202.984 151.859 201.394C150.098 199.376 149.887 198.098 151.62 199.661C152.3 200.238 152.429 200.15 152.137 199.307C151.844 198.464 150.859 197.717 149.989 197.554C149.119 197.392 148.548 196.834 148.65 196.291C148.874 195.094 145.767 193.049 144.843 193.777C144.477 193.934 145.279 195.66 146.625 197.488C147.971 199.316 148.508 200.655 147.856 200.533C146.551 200.289 141.466 192.582 141.71 191.277C141.791 190.842 139.922 188.803 137.509 186.663C135.075 184.632 133.186 182.702 133.247 182.375C133.369 181.723 141.735 184.527 142.986 185.661ZM180.011 197.093C177.037 203.966 175.997 202.308 178.794 195.176C179.575 193.408 180.472 192.225 180.846 192.633C181.22 193.041 180.853 194.998 180.011 197.093ZM151.182 188.771C151.95 189.478 152.175 190.083 151.522 189.961C150.979 189.859 149.776 189.071 149.007 188.364C148.239 187.658 148.124 187.073 148.667 187.175C149.32 187.297 150.414 188.064 151.182 188.771ZM139.189 192.719C138.945 194.024 137.137 191.66 136.388 189.043L135.64 186.426L137.476 189.246C138.428 190.775 139.25 192.393 139.189 192.719ZM164.306 195.618C168.242 199.844 169.507 202.107 168.454 202.923C168.067 203.189 166.571 201.558 165.069 199.363C163.566 197.168 162.111 195.319 161.785 195.258C161.35 195.177 160.514 194.232 159.807 193.199C157.489 189.951 160.262 191.371 164.306 195.618ZM150.028 191.933C150.232 192.646 149.777 192.674 148.968 192.185C147.153 191.057 146.969 190.234 148.492 190.519C149.144 190.641 149.824 191.219 150.028 191.933ZM174.868 200.521C175.8 202.159 175.671 202.247 174.25 201.418C173.333 200.909 172.714 200.005 172.816 199.461C173.08 198.047 173.692 198.387 174.868 200.521ZM142.759 200.705C142.984 201.31 143.813 201.69 144.635 201.506C145.437 201.431 146.858 202.26 147.891 203.354C149.631 205.481 149.631 205.481 147.551 203.966C144.9 201.894 143.922 201.71 144.527 203.287C145.289 205.231 144.283 204.593 142.012 201.691C140.823 200.23 140.462 199.149 141.114 199.271C141.767 199.393 142.447 199.971 142.759 200.705ZM160.511 206.278C162.244 207.841 162.931 208.983 162.061 208.82C160.845 208.705 161.069 209.31 162.633 211.178C164.638 213.693 164 214.699 161.954 212.402C160.173 210.493 155.916 203.167 156.677 203.309C157.112 203.391 158.778 204.715 160.511 206.278ZM167.668 209.531C168.735 211.645 168.735 211.645 166.954 209.735C165.921 208.641 164.888 207.547 164.691 207.398C164.514 207.14 164.752 207.072 165.404 207.194C166.057 207.316 167.09 208.41 167.668 209.531ZM180.67 217.03C179.917 221.055 179.387 222.081 179.128 220.457C178.645 218.227 180.423 211.13 181.402 211.313C181.62 211.354 181.349 214.005 180.67 217.03ZM150.85 214.603C151.618 215.309 151.843 215.914 151.191 215.792C150.647 215.69 149.444 214.902 148.676 214.196C147.908 213.489 147.792 212.905 148.336 213.006C148.988 213.128 150.082 213.896 150.85 214.603ZM165.666 219.627C165.361 221.258 164.878 220.83 163.063 217.901C161.445 215.122 161.445 215.122 163.701 216.895C164.884 217.792 165.768 219.083 165.666 219.627ZM161.562 219.309C161.793 220.478 161.406 220.743 160.4 220.105C159.7 219.636 159.061 218.841 159.162 218.297C159.447 216.774 161.214 217.555 161.562 219.309ZM138.075 216.716C137.974 217.26 137.328 217.702 136.676 217.58C136.132 217.478 136.016 216.893 136.444 216.41C136.893 215.819 137.518 215.486 137.844 215.547C138.061 215.587 138.198 216.063 138.075 216.716ZM151.022 219.701C152.287 221.964 150.506 221.856 148.915 219.532C147.086 217.276 148.277 220.538 150.541 224.677C151.982 227.199 151.676 227.029 149.229 223.869C143.124 216.197 143.281 216.564 146.76 217.215C148.5 217.54 150.424 218.688 151.022 219.701ZM124.233 218.516C121.59 218.81 121.57 218.919 123.425 219.829C125.172 220.718 125.172 220.718 123.147 220.114C121.862 219.761 120.17 219.782 119.328 220.075C118.485 220.368 117.377 220.273 116.895 219.845C115.644 218.71 121.223 217.165 124.376 217.755L127.094 218.264L124.233 218.516ZM154.659 224.322C155.427 225.029 155.651 225.633 154.999 225.511C154.455 225.41 153.252 224.622 152.484 223.915C151.716 223.208 151.6 222.624 152.144 222.726C152.796 222.848 153.891 223.615 154.659 224.322ZM114.223 217.882C113.252 218.263 111.954 218.583 111.302 218.461C110.758 218.359 111.077 217.856 112.049 217.475C113.02 217.094 114.427 216.794 114.971 216.896C115.623 217.018 115.195 217.501 114.223 217.882ZM145.553 224.87C145.451 225.414 144.915 225.876 144.262 225.754C143.718 225.652 143.277 225.007 143.378 224.463C143.5 223.81 144.126 223.477 144.669 223.579C145.322 223.701 145.675 224.217 145.553 224.87ZM135.692 224.038C134.354 224.576 134.402 224.922 135.951 225.662C137.086 226.213 136.176 226.267 133.981 225.969C131.915 225.583 129.318 224.421 128.285 223.327C126.701 221.567 126.939 221.499 131.961 222.326C135.549 222.998 136.793 223.568 135.692 224.038ZM157.691 229.167C157.304 229.433 156.495 228.944 155.876 228.04C155.101 226.769 155.23 226.68 156.631 227.618C157.657 228.148 158.078 228.902 157.691 229.167ZM148.763 231.775C148.722 231.992 147.268 231.945 145.419 231.6C143.679 231.274 142.239 230.554 142.32 230.119C142.422 229.575 143.985 229.642 145.663 230.294C147.471 230.858 148.803 231.557 148.763 231.775ZM154.521 239.495C156.479 241.662 155.786 241.758 152.054 240.046C150.722 239.347 149.757 238.491 149.859 237.947C150.123 236.533 152.563 237.327 154.521 239.495ZM142.344 240.819C141.216 240.833 139.258 240.467 137.994 240.005C136.621 239.523 137.532 239.468 139.924 239.916C142.337 240.254 143.383 240.675 142.344 240.819ZM113.325 236.515C112.524 236.59 111.219 236.346 110.607 236.006C109.907 235.537 110.491 235.422 112.014 235.706C113.536 235.991 114.039 236.311 113.325 236.515ZM149.208 245.03C149.902 244.935 151.152 246.069 152.016 247.469C152.879 248.869 153.022 249.909 152.37 249.787C151.609 249.645 151.146 249.108 151.248 248.564C151.37 247.912 149.624 247.022 147.49 246.397C145.356 245.773 143.541 244.645 143.357 243.823C143.214 242.783 143.778 242.776 145.613 243.795C146.816 244.583 148.515 245.126 149.208 245.03ZM142.57 246.828C143.338 247.534 143.651 248.268 143.372 248.554C143.005 248.711 141.891 248.052 140.966 246.978C138.879 244.899 140.265 244.708 142.57 246.828ZM166.465 254.451C165.541 255.179 162.802 252.978 163.026 251.781C163.148 251.129 163.909 251.271 165.16 252.406C166.105 253.371 166.723 254.274 166.465 254.451ZM182.293 257.075C182.13 257.945 181.553 258.625 180.9 258.503C180.357 258.401 179.955 257.538 180.118 256.668C180.281 255.798 180.967 255.138 181.511 255.24C182.163 255.362 182.456 256.205 182.293 257.075ZM137.427 250.256C133.845 250.149 133.934 250.278 139.377 251.86L145.215 253.74L139.65 252.811C135.824 252.208 133.621 251.345 132.955 250.095C132.024 248.457 132.499 248.321 136.591 249.312C141.246 250.295 141.246 250.295 137.427 250.256ZM174.893 258.73C174.404 259.539 174.139 259.152 174.363 257.955C174.478 256.739 174.926 256.147 175.171 256.643C175.436 257.03 175.362 258.03 174.893 258.73ZM137.992 255.653C138.251 257.278 138.122 257.366 136.932 255.905C135.369 254.037 135.273 253.343 136.687 253.608C137.231 253.709 137.849 254.613 137.992 255.653ZM152.516 259.834C152.414 260.378 153.379 261.234 154.623 261.805C155.846 262.484 156.506 263.17 155.989 263.524C155.473 263.878 155.507 264.897 156.017 265.781C156.616 266.793 156.493 267.446 155.522 267.827C154.917 268.052 154.414 267.733 154.536 267.08C154.821 265.557 150.328 260.1 148.37 259.734C147.718 259.612 146.821 258.994 146.467 258.477C146.114 257.961 147.371 257.858 149.219 258.204C151.177 258.571 152.617 259.29 152.516 259.834ZM144.003 266.235C146.171 267.879 148.489 269.326 149.25 269.468C150.011 269.611 150.582 270.168 150.46 270.82C150.134 272.561 148.476 271.8 143.806 267.887C139.225 264.102 136.629 262.941 137.479 265.014C138.016 266.353 135.583 266.123 133.157 264.656C130.227 262.869 131.797 261.699 136.037 262.493C138.321 262.92 141.835 264.591 144.003 266.235ZM125.668 264.38C125.41 264.557 123.371 264.626 121.224 264.674C118.424 264.601 117.792 264.37 119.13 263.832C120.836 263.138 126.938 263.605 125.668 264.38ZM156.624 270.961C157.494 272.925 156.346 273.048 155.149 271.022C154.551 270.01 154.564 269.337 155.108 269.438C155.651 269.54 156.42 270.247 156.624 270.961ZM136.325 268.176C137.093 268.882 137.317 269.487 136.665 269.365C136.121 269.263 134.918 268.475 134.15 267.769C133.382 267.062 133.266 266.477 133.81 266.579C134.462 266.701 135.556 267.469 136.325 268.176ZM155.926 277.697C155.804 278.35 155.063 278.099 154.335 277.175C153.608 276.25 153.05 275.02 153.152 274.476C153.274 273.824 154.015 274.075 154.743 274.999C155.47 275.923 156.028 277.154 155.926 277.697ZM151.878 285.496C150.234 285.864 150.458 286.469 153.306 288.691C155.148 290.274 156.644 291.904 156.542 292.448C156.461 292.883 156.923 293.42 157.575 293.542C158.228 293.664 158.628 292.726 158.37 291.102C158.083 289.022 158.478 289.32 160.341 292.596C161.605 294.859 163.543 297.136 164.569 297.665C165.684 298.324 166.52 299.269 166.418 299.813C166.296 300.465 165.338 300.173 164.175 299.168C162.993 298.271 160.94 297.212 159.676 296.75C158.392 296.397 156.155 294.515 154.7 292.667C153.266 290.709 151.227 288.977 150.248 288.794C149.161 288.59 148.393 287.884 148.494 287.34C148.617 286.687 148.046 286.13 147.176 285.967C146.306 285.805 145.32 285.057 145.096 284.452C144.783 283.718 146.495 283.588 149.302 284.226C152.238 284.775 153.156 285.285 151.878 285.496ZM135.842 288.8C135.801 289.018 134.822 288.835 133.687 288.284C132.552 287.734 131.696 286.899 131.818 286.246C131.92 285.702 132.878 285.994 133.952 286.87C135.026 287.747 135.882 288.583 135.842 288.8ZM125.323 290.885C123.984 291.422 123.923 291.749 124.902 291.932C127.403 292.4 124.862 293.951 121.348 294.082C119.419 294.171 118.08 294.708 118.413 295.334C118.638 295.939 119.684 296.36 120.704 296.325C121.852 296.202 123.334 296.705 124.102 297.411C125.155 298.396 124.768 298.662 122.267 298.194C120.527 297.868 116.987 297.544 114.513 297.531L110.15 297.39L114.519 294.492C118.888 291.595 124.004 289.512 126.07 289.899C126.722 290.021 126.294 290.504 125.323 290.885ZM136.196 292.919C133.335 293.172 133.512 293.43 137.903 295.828C138.712 296.317 136.843 296.08 133.69 295.49C128.076 294.215 127.967 294.194 130.726 292.684C132.105 291.929 134.66 291.506 136.271 291.92L139.077 292.558L136.196 292.919ZM144.535 295.268C143.407 295.282 141.667 294.956 140.729 294.556C139.703 294.026 140.614 293.971 142.68 294.358C144.746 294.744 145.575 295.125 144.535 295.268ZM152.738 298.942C152.351 299.207 151.352 299.133 150.652 298.664C149.843 298.175 150.231 297.91 151.427 298.133C152.643 298.248 153.234 298.697 152.738 298.942ZM122.982 303.394C122.038 304.23 121.087 304.503 120.713 304.095C120.448 303.708 121.025 303.028 121.997 302.646C124.565 301.551 124.851 301.829 122.982 303.394Z" fill="#213C4E"/>
</svg>
